<mxfile host="app.diagrams.net" modified="2024-04-23T19:20:26.465Z" agent="Mozilla/5.0 (Windows NT 10.0; Win64; x64) AppleWebKit/537.36 (KHTML, like Gecko) Chrome/124.0.0.0 Safari/537.36" etag="CtUW7iR4LUU9RxhK1tIL" version="24.2.8" type="github">
  <diagram name="Page-1" id="CejLXMU7DiA9aCzXWMNu">
    <mxGraphModel dx="2109" dy="655" grid="1" gridSize="10" guides="1" tooltips="1" connect="1" arrows="1" fold="1" page="1" pageScale="1" pageWidth="850" pageHeight="1100" math="0" shadow="0">
      <root>
        <mxCell id="0" />
        <mxCell id="1" parent="0" />
        <mxCell id="v1RIOKHqUVee-AEiR5x7-2" value="1" style="ellipse;whiteSpace=wrap;html=1;aspect=fixed;strokeWidth=1;" parent="1" vertex="1">
          <mxGeometry x="132" y="292" width="50" height="50" as="geometry" />
        </mxCell>
        <mxCell id="v1RIOKHqUVee-AEiR5x7-3" value="24" style="ellipse;whiteSpace=wrap;html=1;aspect=fixed;strokeWidth=1;" parent="1" vertex="1">
          <mxGeometry x="242" y="292" width="50" height="50" as="geometry" />
        </mxCell>
        <mxCell id="v1RIOKHqUVee-AEiR5x7-4" value="48" style="ellipse;whiteSpace=wrap;html=1;aspect=fixed;strokeWidth=1;" parent="1" vertex="1">
          <mxGeometry x="352" y="292" width="50" height="50" as="geometry" />
        </mxCell>
        <mxCell id="v1RIOKHqUVee-AEiR5x7-7" value="" style="endArrow=classic;html=1;rounded=0;entryX=0;entryY=0.5;entryDx=0;entryDy=0;strokeWidth=1;" parent="1" source="v1RIOKHqUVee-AEiR5x7-248" target="v1RIOKHqUVee-AEiR5x7-2" edge="1">
          <mxGeometry width="50" height="50" relative="1" as="geometry">
            <mxPoint x="22" y="260" as="sourcePoint" />
            <mxPoint x="422" y="290" as="targetPoint" />
          </mxGeometry>
        </mxCell>
        <mxCell id="v1RIOKHqUVee-AEiR5x7-8" value="" style="endArrow=classic;html=1;rounded=0;entryX=0;entryY=0.5;entryDx=0;entryDy=0;exitX=1;exitY=0.5;exitDx=0;exitDy=0;strokeWidth=1;" parent="1" source="v1RIOKHqUVee-AEiR5x7-2" target="v1RIOKHqUVee-AEiR5x7-3" edge="1">
          <mxGeometry width="50" height="50" relative="1" as="geometry">
            <mxPoint x="92" y="332" as="sourcePoint" />
            <mxPoint x="142" y="327" as="targetPoint" />
          </mxGeometry>
        </mxCell>
        <mxCell id="v1RIOKHqUVee-AEiR5x7-9" value="" style="endArrow=classic;html=1;rounded=0;entryX=0;entryY=0.5;entryDx=0;entryDy=0;exitX=1;exitY=0.5;exitDx=0;exitDy=0;strokeWidth=1;" parent="1" source="v1RIOKHqUVee-AEiR5x7-3" target="v1RIOKHqUVee-AEiR5x7-4" edge="1">
          <mxGeometry width="50" height="50" relative="1" as="geometry">
            <mxPoint x="102" y="342" as="sourcePoint" />
            <mxPoint x="152" y="337" as="targetPoint" />
          </mxGeometry>
        </mxCell>
        <mxCell id="v1RIOKHqUVee-AEiR5x7-11" value="" style="endArrow=classic;html=1;rounded=0;exitX=1;exitY=0;exitDx=0;exitDy=0;entryX=0;entryY=0;entryDx=0;entryDy=0;edgeStyle=orthogonalEdgeStyle;elbow=vertical;curved=1;strokeWidth=1;" parent="1" source="v1RIOKHqUVee-AEiR5x7-4" target="v1RIOKHqUVee-AEiR5x7-4" edge="1">
          <mxGeometry width="50" height="50" relative="1" as="geometry">
            <mxPoint x="333.9976695296637" y="320.0023304703363" as="sourcePoint" />
            <mxPoint x="421.31999999999994" y="372.68" as="targetPoint" />
            <Array as="points">
              <mxPoint x="377" y="200" />
            </Array>
          </mxGeometry>
        </mxCell>
        <mxCell id="v1RIOKHqUVee-AEiR5x7-13" value="&lt;b&gt;0 - 9&lt;/b&gt;" style="text;html=1;align=center;verticalAlign=middle;resizable=0;points=[];autosize=1;strokeColor=none;fillColor=none;strokeWidth=1;" parent="1" vertex="1">
          <mxGeometry x="187" y="280" width="50" height="30" as="geometry" />
        </mxCell>
        <mxCell id="v1RIOKHqUVee-AEiR5x7-14" value="&lt;b&gt;λ&lt;/b&gt;" style="text;html=1;align=center;verticalAlign=middle;resizable=0;points=[];autosize=1;strokeColor=none;fillColor=none;strokeWidth=1;" parent="1" vertex="1">
          <mxGeometry x="302" y="292" width="30" height="30" as="geometry" />
        </mxCell>
        <mxCell id="v1RIOKHqUVee-AEiR5x7-16" value="&lt;b&gt;λ&lt;/b&gt;" style="text;html=1;align=center;verticalAlign=middle;resizable=0;points=[];autosize=1;strokeColor=none;fillColor=none;strokeWidth=1;" parent="1" vertex="1">
          <mxGeometry x="430" y="292" width="30" height="30" as="geometry" />
        </mxCell>
        <mxCell id="v1RIOKHqUVee-AEiR5x7-17" value="&lt;b&gt;0 - 9&lt;/b&gt;" style="text;html=1;align=center;verticalAlign=middle;resizable=0;points=[];autosize=1;strokeColor=none;fillColor=none;strokeWidth=1;" parent="1" vertex="1">
          <mxGeometry x="352" y="210" width="50" height="30" as="geometry" />
        </mxCell>
        <mxCell id="v1RIOKHqUVee-AEiR5x7-19" value="2" style="ellipse;whiteSpace=wrap;html=1;aspect=fixed;strokeWidth=1;" parent="1" vertex="1">
          <mxGeometry y="552" width="50" height="50" as="geometry" />
        </mxCell>
        <mxCell id="v1RIOKHqUVee-AEiR5x7-20" value="25" style="ellipse;whiteSpace=wrap;html=1;aspect=fixed;strokeWidth=1;" parent="1" vertex="1">
          <mxGeometry x="110" y="512" width="50" height="50" as="geometry" />
        </mxCell>
        <mxCell id="v1RIOKHqUVee-AEiR5x7-21" value="26" style="ellipse;whiteSpace=wrap;html=1;aspect=fixed;strokeWidth=1;" parent="1" vertex="1">
          <mxGeometry x="110" y="592" width="50" height="50" as="geometry" />
        </mxCell>
        <mxCell id="v1RIOKHqUVee-AEiR5x7-22" value="49" style="ellipse;whiteSpace=wrap;html=1;aspect=fixed;strokeWidth=1;" parent="1" vertex="1">
          <mxGeometry x="220" y="552" width="50" height="50" as="geometry" />
        </mxCell>
        <mxCell id="v1RIOKHqUVee-AEiR5x7-23" value="" style="endArrow=classic;html=1;rounded=0;entryX=0;entryY=0.5;entryDx=0;entryDy=0;exitX=1;exitY=0;exitDx=0;exitDy=0;strokeWidth=1;" parent="1" source="v1RIOKHqUVee-AEiR5x7-19" target="v1RIOKHqUVee-AEiR5x7-20" edge="1">
          <mxGeometry width="50" height="50" relative="1" as="geometry">
            <mxPoint x="30" y="407" as="sourcePoint" />
            <mxPoint x="90" y="407" as="targetPoint" />
          </mxGeometry>
        </mxCell>
        <mxCell id="v1RIOKHqUVee-AEiR5x7-24" value="" style="endArrow=classic;html=1;rounded=0;entryX=0;entryY=0.5;entryDx=0;entryDy=0;exitX=1;exitY=1;exitDx=0;exitDy=0;strokeWidth=1;" parent="1" source="v1RIOKHqUVee-AEiR5x7-19" target="v1RIOKHqUVee-AEiR5x7-21" edge="1">
          <mxGeometry width="50" height="50" relative="1" as="geometry">
            <mxPoint x="40" y="417" as="sourcePoint" />
            <mxPoint x="100" y="417" as="targetPoint" />
          </mxGeometry>
        </mxCell>
        <mxCell id="v1RIOKHqUVee-AEiR5x7-25" value="" style="endArrow=classic;html=1;rounded=0;entryX=0;entryY=0;entryDx=0;entryDy=0;exitX=1;exitY=0.5;exitDx=0;exitDy=0;strokeWidth=1;" parent="1" source="v1RIOKHqUVee-AEiR5x7-20" target="v1RIOKHqUVee-AEiR5x7-22" edge="1">
          <mxGeometry width="50" height="50" relative="1" as="geometry">
            <mxPoint x="50" y="427" as="sourcePoint" />
            <mxPoint x="110" y="427" as="targetPoint" />
          </mxGeometry>
        </mxCell>
        <mxCell id="v1RIOKHqUVee-AEiR5x7-26" value="" style="endArrow=classic;html=1;rounded=0;entryX=0;entryY=1;entryDx=0;entryDy=0;exitX=1;exitY=0.5;exitDx=0;exitDy=0;strokeWidth=1;" parent="1" source="v1RIOKHqUVee-AEiR5x7-21" target="v1RIOKHqUVee-AEiR5x7-22" edge="1">
          <mxGeometry width="50" height="50" relative="1" as="geometry">
            <mxPoint x="60" y="437" as="sourcePoint" />
            <mxPoint x="120" y="437" as="targetPoint" />
          </mxGeometry>
        </mxCell>
        <mxCell id="v1RIOKHqUVee-AEiR5x7-27" value="&lt;b&gt;λ&lt;/b&gt;" style="text;html=1;align=center;verticalAlign=middle;resizable=0;points=[];autosize=1;strokeColor=none;fillColor=none;strokeWidth=1;" parent="1" vertex="1">
          <mxGeometry x="60" y="522" width="30" height="30" as="geometry" />
        </mxCell>
        <mxCell id="v1RIOKHqUVee-AEiR5x7-28" value="&lt;b&gt;λ&lt;/b&gt;" style="text;html=1;align=center;verticalAlign=middle;resizable=0;points=[];autosize=1;strokeColor=none;fillColor=none;strokeWidth=1;" parent="1" vertex="1">
          <mxGeometry x="180" y="522" width="30" height="30" as="geometry" />
        </mxCell>
        <mxCell id="v1RIOKHqUVee-AEiR5x7-29" value="&lt;b&gt;λ&lt;/b&gt;" style="text;html=1;align=center;verticalAlign=middle;resizable=0;points=[];autosize=1;strokeColor=none;fillColor=none;strokeWidth=1;" parent="1" vertex="1">
          <mxGeometry x="60" y="602" width="30" height="30" as="geometry" />
        </mxCell>
        <mxCell id="v1RIOKHqUVee-AEiR5x7-30" value="&lt;b&gt;λ&lt;/b&gt;" style="text;html=1;align=center;verticalAlign=middle;resizable=0;points=[];autosize=1;strokeColor=none;fillColor=none;strokeWidth=1;" parent="1" vertex="1">
          <mxGeometry x="180" y="602" width="30" height="30" as="geometry" />
        </mxCell>
        <mxCell id="v1RIOKHqUVee-AEiR5x7-31" value="" style="endArrow=classic;html=1;rounded=0;exitX=1;exitY=0;exitDx=0;exitDy=0;entryX=0;entryY=0;entryDx=0;entryDy=0;edgeStyle=orthogonalEdgeStyle;elbow=vertical;curved=1;strokeWidth=1;" parent="1" source="v1RIOKHqUVee-AEiR5x7-20" target="v1RIOKHqUVee-AEiR5x7-20" edge="1">
          <mxGeometry width="50" height="50" relative="1" as="geometry">
            <mxPoint x="206" y="512" as="sourcePoint" />
            <mxPoint x="170" y="512" as="targetPoint" />
            <Array as="points">
              <mxPoint x="153" y="472" />
              <mxPoint x="120" y="472" />
              <mxPoint x="120" y="512" />
              <mxPoint x="117" y="512" />
            </Array>
          </mxGeometry>
        </mxCell>
        <mxCell id="v1RIOKHqUVee-AEiR5x7-32" value="" style="endArrow=classic;html=1;rounded=0;exitX=1;exitY=1;exitDx=0;exitDy=0;entryX=0;entryY=1;entryDx=0;entryDy=0;edgeStyle=orthogonalEdgeStyle;elbow=vertical;curved=1;strokeWidth=1;" parent="1" source="v1RIOKHqUVee-AEiR5x7-21" target="v1RIOKHqUVee-AEiR5x7-21" edge="1">
          <mxGeometry width="50" height="50" relative="1" as="geometry">
            <mxPoint x="253" y="399" as="sourcePoint" />
            <mxPoint x="217" y="399" as="targetPoint" />
            <Array as="points">
              <mxPoint x="150" y="635" />
              <mxPoint x="150" y="682" />
              <mxPoint x="117" y="682" />
            </Array>
          </mxGeometry>
        </mxCell>
        <mxCell id="v1RIOKHqUVee-AEiR5x7-33" value="&lt;font style=&quot;font-size: 14px;&quot;&gt;&lt;b&gt;a -z&lt;/b&gt;&lt;/font&gt;" style="text;html=1;align=center;verticalAlign=middle;resizable=0;points=[];autosize=1;strokeColor=none;fillColor=none;strokeWidth=1;" parent="1" vertex="1">
          <mxGeometry x="110" y="440" width="50" height="30" as="geometry" />
        </mxCell>
        <mxCell id="v1RIOKHqUVee-AEiR5x7-34" value="&lt;b&gt;A - Z&lt;/b&gt;" style="text;html=1;align=center;verticalAlign=middle;resizable=0;points=[];autosize=1;strokeColor=none;fillColor=none;strokeWidth=1;" parent="1" vertex="1">
          <mxGeometry x="110" y="682" width="50" height="30" as="geometry" />
        </mxCell>
        <mxCell id="v1RIOKHqUVee-AEiR5x7-35" value="61" style="ellipse;whiteSpace=wrap;html=1;aspect=fixed;strokeWidth=1;" parent="1" vertex="1">
          <mxGeometry x="430" y="552" width="50" height="50" as="geometry" />
        </mxCell>
        <mxCell id="v1RIOKHqUVee-AEiR5x7-36" value="" style="endArrow=classic;html=1;rounded=0;entryX=0;entryY=0.5;entryDx=0;entryDy=0;exitX=1;exitY=0.5;exitDx=0;exitDy=0;strokeWidth=1;" parent="1" source="v1RIOKHqUVee-AEiR5x7-22" target="v1RIOKHqUVee-AEiR5x7-35" edge="1">
          <mxGeometry width="50" height="50" relative="1" as="geometry">
            <mxPoint x="30" y="407" as="sourcePoint" />
            <mxPoint x="90" y="407" as="targetPoint" />
          </mxGeometry>
        </mxCell>
        <mxCell id="v1RIOKHqUVee-AEiR5x7-37" value="&lt;b&gt;λ&lt;/b&gt;" style="text;html=1;align=center;verticalAlign=middle;resizable=0;points=[];autosize=1;strokeColor=none;fillColor=none;strokeWidth=1;" parent="1" vertex="1">
          <mxGeometry x="330" y="552" width="30" height="30" as="geometry" />
        </mxCell>
        <mxCell id="v1RIOKHqUVee-AEiR5x7-39" value="62" style="ellipse;whiteSpace=wrap;html=1;aspect=fixed;strokeWidth=1;" parent="1" vertex="1">
          <mxGeometry x="320" y="712" width="50" height="50" as="geometry" />
        </mxCell>
        <mxCell id="v1RIOKHqUVee-AEiR5x7-40" value="70" style="ellipse;whiteSpace=wrap;html=1;aspect=fixed;strokeWidth=1;" parent="1" vertex="1">
          <mxGeometry x="430" y="672" width="50" height="50" as="geometry" />
        </mxCell>
        <mxCell id="v1RIOKHqUVee-AEiR5x7-41" value="71" style="ellipse;whiteSpace=wrap;html=1;aspect=fixed;strokeWidth=1;" parent="1" vertex="1">
          <mxGeometry x="430" y="752" width="50" height="50" as="geometry" />
        </mxCell>
        <mxCell id="v1RIOKHqUVee-AEiR5x7-42" value="78" style="ellipse;whiteSpace=wrap;html=1;aspect=fixed;strokeWidth=1;" parent="1" vertex="1">
          <mxGeometry x="540" y="712" width="50" height="50" as="geometry" />
        </mxCell>
        <mxCell id="v1RIOKHqUVee-AEiR5x7-43" value="" style="endArrow=classic;html=1;rounded=0;entryX=0;entryY=0.5;entryDx=0;entryDy=0;exitX=1;exitY=0;exitDx=0;exitDy=0;strokeWidth=1;" parent="1" source="v1RIOKHqUVee-AEiR5x7-39" target="v1RIOKHqUVee-AEiR5x7-40" edge="1">
          <mxGeometry width="50" height="50" relative="1" as="geometry">
            <mxPoint x="350" y="567" as="sourcePoint" />
            <mxPoint x="410" y="567" as="targetPoint" />
          </mxGeometry>
        </mxCell>
        <mxCell id="v1RIOKHqUVee-AEiR5x7-44" value="" style="endArrow=classic;html=1;rounded=0;entryX=0;entryY=0.5;entryDx=0;entryDy=0;exitX=1;exitY=1;exitDx=0;exitDy=0;strokeWidth=1;" parent="1" source="v1RIOKHqUVee-AEiR5x7-39" target="v1RIOKHqUVee-AEiR5x7-41" edge="1">
          <mxGeometry width="50" height="50" relative="1" as="geometry">
            <mxPoint x="360" y="577" as="sourcePoint" />
            <mxPoint x="420" y="577" as="targetPoint" />
          </mxGeometry>
        </mxCell>
        <mxCell id="v1RIOKHqUVee-AEiR5x7-45" value="" style="endArrow=classic;html=1;rounded=0;entryX=0;entryY=0;entryDx=0;entryDy=0;exitX=1;exitY=0.5;exitDx=0;exitDy=0;strokeWidth=1;" parent="1" source="v1RIOKHqUVee-AEiR5x7-40" target="v1RIOKHqUVee-AEiR5x7-42" edge="1">
          <mxGeometry width="50" height="50" relative="1" as="geometry">
            <mxPoint x="370" y="587" as="sourcePoint" />
            <mxPoint x="430" y="587" as="targetPoint" />
          </mxGeometry>
        </mxCell>
        <mxCell id="v1RIOKHqUVee-AEiR5x7-46" value="" style="endArrow=classic;html=1;rounded=0;entryX=0;entryY=1;entryDx=0;entryDy=0;exitX=1;exitY=0.5;exitDx=0;exitDy=0;strokeWidth=1;" parent="1" source="v1RIOKHqUVee-AEiR5x7-41" target="v1RIOKHqUVee-AEiR5x7-42" edge="1">
          <mxGeometry width="50" height="50" relative="1" as="geometry">
            <mxPoint x="380" y="597" as="sourcePoint" />
            <mxPoint x="440" y="597" as="targetPoint" />
          </mxGeometry>
        </mxCell>
        <mxCell id="v1RIOKHqUVee-AEiR5x7-47" value="&lt;b&gt;λ&lt;/b&gt;" style="text;html=1;align=center;verticalAlign=middle;resizable=0;points=[];autosize=1;strokeColor=none;fillColor=none;strokeWidth=1;" parent="1" vertex="1">
          <mxGeometry x="380" y="682" width="30" height="30" as="geometry" />
        </mxCell>
        <mxCell id="v1RIOKHqUVee-AEiR5x7-48" value="&lt;b&gt;λ&lt;/b&gt;" style="text;html=1;align=center;verticalAlign=middle;resizable=0;points=[];autosize=1;strokeColor=none;fillColor=none;strokeWidth=1;" parent="1" vertex="1">
          <mxGeometry x="500" y="682" width="30" height="30" as="geometry" />
        </mxCell>
        <mxCell id="v1RIOKHqUVee-AEiR5x7-49" value="&lt;b&gt;λ&lt;/b&gt;" style="text;html=1;align=center;verticalAlign=middle;resizable=0;points=[];autosize=1;strokeColor=none;fillColor=none;strokeWidth=1;" parent="1" vertex="1">
          <mxGeometry x="380" y="762" width="30" height="30" as="geometry" />
        </mxCell>
        <mxCell id="v1RIOKHqUVee-AEiR5x7-50" value="&lt;b&gt;λ&lt;/b&gt;" style="text;html=1;align=center;verticalAlign=middle;resizable=0;points=[];autosize=1;strokeColor=none;fillColor=none;strokeWidth=1;" parent="1" vertex="1">
          <mxGeometry x="500" y="762" width="30" height="30" as="geometry" />
        </mxCell>
        <mxCell id="v1RIOKHqUVee-AEiR5x7-51" value="" style="endArrow=classic;html=1;rounded=0;exitX=1;exitY=0;exitDx=0;exitDy=0;entryX=0;entryY=0;entryDx=0;entryDy=0;edgeStyle=orthogonalEdgeStyle;elbow=vertical;curved=1;strokeWidth=1;" parent="1" source="v1RIOKHqUVee-AEiR5x7-40" target="v1RIOKHqUVee-AEiR5x7-40" edge="1">
          <mxGeometry width="50" height="50" relative="1" as="geometry">
            <mxPoint x="526" y="672" as="sourcePoint" />
            <mxPoint x="490" y="672" as="targetPoint" />
            <Array as="points">
              <mxPoint x="473" y="632" />
              <mxPoint x="440" y="632" />
              <mxPoint x="440" y="672" />
              <mxPoint x="437" y="672" />
            </Array>
          </mxGeometry>
        </mxCell>
        <mxCell id="v1RIOKHqUVee-AEiR5x7-52" value="" style="endArrow=classic;html=1;rounded=0;exitX=1;exitY=1;exitDx=0;exitDy=0;entryX=0;entryY=1;entryDx=0;entryDy=0;edgeStyle=orthogonalEdgeStyle;elbow=vertical;curved=1;strokeWidth=1;" parent="1" source="v1RIOKHqUVee-AEiR5x7-41" target="v1RIOKHqUVee-AEiR5x7-41" edge="1">
          <mxGeometry width="50" height="50" relative="1" as="geometry">
            <mxPoint x="573" y="559" as="sourcePoint" />
            <mxPoint x="537" y="559" as="targetPoint" />
            <Array as="points">
              <mxPoint x="470" y="795" />
              <mxPoint x="470" y="842" />
              <mxPoint x="437" y="842" />
            </Array>
          </mxGeometry>
        </mxCell>
        <mxCell id="v1RIOKHqUVee-AEiR5x7-53" value="&lt;b&gt;A - Z&lt;/b&gt;" style="text;html=1;align=center;verticalAlign=middle;resizable=0;points=[];autosize=1;strokeColor=none;fillColor=none;strokeWidth=1;" parent="1" vertex="1">
          <mxGeometry x="430" y="840" width="50" height="30" as="geometry" />
        </mxCell>
        <mxCell id="v1RIOKHqUVee-AEiR5x7-54" value="" style="endArrow=classic;html=1;rounded=0;exitX=0.5;exitY=0;exitDx=0;exitDy=0;entryX=1;entryY=1;entryDx=0;entryDy=0;strokeWidth=1;" parent="1" source="v1RIOKHqUVee-AEiR5x7-42" target="v1RIOKHqUVee-AEiR5x7-35" edge="1">
          <mxGeometry width="50" height="50" relative="1" as="geometry">
            <mxPoint x="280" y="587" as="sourcePoint" />
            <mxPoint x="560" y="612" as="targetPoint" />
          </mxGeometry>
        </mxCell>
        <mxCell id="v1RIOKHqUVee-AEiR5x7-55" value="" style="endArrow=classic;html=1;rounded=0;entryX=0.5;entryY=0;entryDx=0;entryDy=0;exitX=0;exitY=1;exitDx=0;exitDy=0;strokeWidth=1;" parent="1" source="v1RIOKHqUVee-AEiR5x7-35" target="v1RIOKHqUVee-AEiR5x7-39" edge="1">
          <mxGeometry width="50" height="50" relative="1" as="geometry">
            <mxPoint x="360" y="632" as="sourcePoint" />
            <mxPoint x="320" y="632" as="targetPoint" />
          </mxGeometry>
        </mxCell>
        <mxCell id="v1RIOKHqUVee-AEiR5x7-56" value="&lt;b&gt;a -z&lt;/b&gt;" style="text;html=1;align=center;verticalAlign=middle;resizable=0;points=[];autosize=1;strokeColor=none;fillColor=none;strokeWidth=1;" parent="1" vertex="1">
          <mxGeometry x="435" y="612" width="40" height="30" as="geometry" />
        </mxCell>
        <mxCell id="v1RIOKHqUVee-AEiR5x7-58" value="60" style="ellipse;whiteSpace=wrap;html=1;aspect=fixed;strokeWidth=1;" parent="1" vertex="1">
          <mxGeometry x="425" y="462" width="50" height="50" as="geometry" />
        </mxCell>
        <mxCell id="v1RIOKHqUVee-AEiR5x7-61" value="" style="endArrow=classic;html=1;rounded=0;exitX=1;exitY=0;exitDx=0;exitDy=0;entryX=0;entryY=0;entryDx=0;entryDy=0;edgeStyle=orthogonalEdgeStyle;elbow=vertical;curved=1;strokeWidth=1;" parent="1" source="v1RIOKHqUVee-AEiR5x7-58" target="v1RIOKHqUVee-AEiR5x7-58" edge="1">
          <mxGeometry width="50" height="50" relative="1" as="geometry">
            <mxPoint x="474.99766952966365" y="480.0023304703363" as="sourcePoint" />
            <mxPoint x="562.3199999999999" y="532.6800000000001" as="targetPoint" />
            <Array as="points">
              <mxPoint x="450" y="360" />
            </Array>
          </mxGeometry>
        </mxCell>
        <mxCell id="v1RIOKHqUVee-AEiR5x7-62" value="&lt;b&gt;λ&lt;/b&gt;" style="text;html=1;align=center;verticalAlign=middle;resizable=0;points=[];autosize=1;strokeColor=none;fillColor=none;strokeWidth=1;" parent="1" vertex="1">
          <mxGeometry x="375" y="460" width="30" height="30" as="geometry" />
        </mxCell>
        <mxCell id="v1RIOKHqUVee-AEiR5x7-63" value="&lt;b&gt;λ&lt;/b&gt;" style="text;html=1;align=center;verticalAlign=middle;resizable=0;points=[];autosize=1;strokeColor=none;fillColor=none;strokeWidth=1;" parent="1" vertex="1">
          <mxGeometry x="485" y="460" width="30" height="30" as="geometry" />
        </mxCell>
        <mxCell id="v1RIOKHqUVee-AEiR5x7-64" value="&lt;b&gt;0 - 9&lt;/b&gt;" style="text;html=1;align=center;verticalAlign=middle;resizable=0;points=[];autosize=1;strokeColor=none;fillColor=none;strokeWidth=1;" parent="1" vertex="1">
          <mxGeometry x="425" y="390" width="50" height="30" as="geometry" />
        </mxCell>
        <mxCell id="v1RIOKHqUVee-AEiR5x7-65" value="" style="curved=1;endArrow=classic;html=1;rounded=0;entryX=0;entryY=0.5;entryDx=0;entryDy=0;exitX=0;exitY=0;exitDx=0;exitDy=0;" parent="1" source="v1RIOKHqUVee-AEiR5x7-35" target="v1RIOKHqUVee-AEiR5x7-58" edge="1">
          <mxGeometry width="50" height="50" relative="1" as="geometry">
            <mxPoint x="380" y="552" as="sourcePoint" />
            <mxPoint x="430" y="502" as="targetPoint" />
            <Array as="points">
              <mxPoint x="430" y="552" />
              <mxPoint x="410" y="550" />
              <mxPoint x="390" y="540" />
              <mxPoint x="380" y="502" />
            </Array>
          </mxGeometry>
        </mxCell>
        <mxCell id="v1RIOKHqUVee-AEiR5x7-66" value="" style="endArrow=classic;html=1;rounded=0;entryX=1;entryY=0;entryDx=0;entryDy=0;exitX=1;exitY=0.5;exitDx=0;exitDy=0;edgeStyle=orthogonalEdgeStyle;curved=1;" parent="1" source="v1RIOKHqUVee-AEiR5x7-58" target="v1RIOKHqUVee-AEiR5x7-35" edge="1">
          <mxGeometry width="50" height="50" relative="1" as="geometry">
            <mxPoint x="540" y="520" as="sourcePoint" />
            <mxPoint x="531.5" y="508" as="targetPoint" />
            <Array as="points">
              <mxPoint x="520" y="487" />
              <mxPoint x="520" y="560" />
              <mxPoint x="481" y="560" />
            </Array>
          </mxGeometry>
        </mxCell>
        <mxCell id="v1RIOKHqUVee-AEiR5x7-70" value="&lt;b&gt;λ&lt;/b&gt;" style="text;html=1;align=center;verticalAlign=middle;resizable=0;points=[];autosize=1;strokeColor=none;fillColor=none;strokeWidth=1;" parent="1" vertex="1">
          <mxGeometry x="519.5" y="557" width="30" height="30" as="geometry" />
        </mxCell>
        <mxCell id="v1RIOKHqUVee-AEiR5x7-71" value="&lt;b&gt;λ&lt;/b&gt;" style="text;html=1;align=center;verticalAlign=middle;resizable=0;points=[];autosize=1;strokeColor=none;fillColor=none;strokeWidth=1;" parent="1" vertex="1">
          <mxGeometry x="370" y="632" width="30" height="30" as="geometry" />
        </mxCell>
        <mxCell id="v1RIOKHqUVee-AEiR5x7-72" value="&lt;b&gt;λ&lt;/b&gt;" style="text;html=1;align=center;verticalAlign=middle;resizable=0;points=[];autosize=1;strokeColor=none;fillColor=none;strokeWidth=1;" parent="1" vertex="1">
          <mxGeometry x="510" y="632" width="30" height="30" as="geometry" />
        </mxCell>
        <mxCell id="v1RIOKHqUVee-AEiR5x7-73" value="" style="endArrow=classic;html=1;rounded=0;entryX=0;entryY=0.5;entryDx=0;entryDy=0;strokeWidth=1;" parent="1" source="v1RIOKHqUVee-AEiR5x7-248" target="v1RIOKHqUVee-AEiR5x7-19" edge="1">
          <mxGeometry width="50" height="50" relative="1" as="geometry">
            <mxPoint x="20" y="532" as="sourcePoint" />
            <mxPoint x="60" y="537" as="targetPoint" />
          </mxGeometry>
        </mxCell>
        <mxCell id="v1RIOKHqUVee-AEiR5x7-75" value="3" style="ellipse;whiteSpace=wrap;html=1;aspect=fixed;strokeWidth=1;" parent="1" vertex="1">
          <mxGeometry x="95" y="820" width="50" height="50" as="geometry" />
        </mxCell>
        <mxCell id="v1RIOKHqUVee-AEiR5x7-76" value="27" style="ellipse;whiteSpace=wrap;html=1;aspect=fixed;strokeWidth=1;" parent="1" vertex="1">
          <mxGeometry x="205" y="820" width="50" height="50" as="geometry" />
        </mxCell>
        <mxCell id="v1RIOKHqUVee-AEiR5x7-77" value="" style="endArrow=classic;html=1;rounded=0;entryX=0;entryY=0.5;entryDx=0;entryDy=0;" parent="1" source="v1RIOKHqUVee-AEiR5x7-248" target="v1RIOKHqUVee-AEiR5x7-75" edge="1">
          <mxGeometry width="50" height="50" relative="1" as="geometry">
            <mxPoint x="35" y="870" as="sourcePoint" />
            <mxPoint x="375" y="780" as="targetPoint" />
          </mxGeometry>
        </mxCell>
        <mxCell id="v1RIOKHqUVee-AEiR5x7-79" value="" style="endArrow=classic;html=1;rounded=0;entryX=0;entryY=0.5;entryDx=0;entryDy=0;exitX=1;exitY=0.5;exitDx=0;exitDy=0;" parent="1" source="v1RIOKHqUVee-AEiR5x7-75" target="v1RIOKHqUVee-AEiR5x7-76" edge="1">
          <mxGeometry width="50" height="50" relative="1" as="geometry">
            <mxPoint x="45" y="880" as="sourcePoint" />
            <mxPoint x="105" y="855" as="targetPoint" />
          </mxGeometry>
        </mxCell>
        <mxCell id="v1RIOKHqUVee-AEiR5x7-81" value="&lt;b&gt;i&lt;/b&gt;" style="text;html=1;align=center;verticalAlign=middle;resizable=0;points=[];autosize=1;strokeColor=none;fillColor=none;" parent="1" vertex="1">
          <mxGeometry x="155" y="818" width="30" height="30" as="geometry" />
        </mxCell>
        <mxCell id="v1RIOKHqUVee-AEiR5x7-82" value="&lt;b&gt;f&lt;/b&gt;" style="text;html=1;align=center;verticalAlign=middle;resizable=0;points=[];autosize=1;strokeColor=none;fillColor=none;" parent="1" vertex="1">
          <mxGeometry x="280" y="818" width="30" height="30" as="geometry" />
        </mxCell>
        <mxCell id="v1RIOKHqUVee-AEiR5x7-100" value="51" style="ellipse;whiteSpace=wrap;html=1;aspect=fixed;strokeWidth=1;" parent="1" vertex="1">
          <mxGeometry x="320" y="912" width="50" height="50" as="geometry" />
        </mxCell>
        <mxCell id="v1RIOKHqUVee-AEiR5x7-101" value="63" style="ellipse;whiteSpace=wrap;html=1;aspect=fixed;strokeWidth=1;" parent="1" vertex="1">
          <mxGeometry x="430" y="912" width="50" height="50" as="geometry" />
        </mxCell>
        <mxCell id="v1RIOKHqUVee-AEiR5x7-103" value="" style="endArrow=classic;html=1;rounded=0;entryX=0;entryY=0.5;entryDx=0;entryDy=0;exitX=1;exitY=0.5;exitDx=0;exitDy=0;" parent="1" source="v1RIOKHqUVee-AEiR5x7-100" target="v1RIOKHqUVee-AEiR5x7-101" edge="1">
          <mxGeometry width="50" height="50" relative="1" as="geometry">
            <mxPoint x="270" y="972" as="sourcePoint" />
            <mxPoint x="330" y="947" as="targetPoint" />
          </mxGeometry>
        </mxCell>
        <mxCell id="v1RIOKHqUVee-AEiR5x7-105" value="&lt;b&gt;e&lt;/b&gt;" style="text;html=1;align=center;verticalAlign=middle;resizable=0;points=[];autosize=1;strokeColor=none;fillColor=none;" parent="1" vertex="1">
          <mxGeometry x="380" y="910" width="30" height="30" as="geometry" />
        </mxCell>
        <mxCell id="v1RIOKHqUVee-AEiR5x7-106" value="&lt;b&gt;n&lt;/b&gt;" style="text;html=1;align=center;verticalAlign=middle;resizable=0;points=[];autosize=1;strokeColor=none;fillColor=none;" parent="1" vertex="1">
          <mxGeometry x="500" y="910" width="30" height="30" as="geometry" />
        </mxCell>
        <mxCell id="v1RIOKHqUVee-AEiR5x7-108" value="4" style="ellipse;whiteSpace=wrap;html=1;aspect=fixed;strokeWidth=1;" parent="1" vertex="1">
          <mxGeometry x="97.5" y="914" width="50" height="50" as="geometry" />
        </mxCell>
        <mxCell id="v1RIOKHqUVee-AEiR5x7-109" value="28" style="ellipse;whiteSpace=wrap;html=1;aspect=fixed;strokeWidth=1;" parent="1" vertex="1">
          <mxGeometry x="207.5" y="914" width="50" height="50" as="geometry" />
        </mxCell>
        <mxCell id="v1RIOKHqUVee-AEiR5x7-110" value="" style="endArrow=classic;html=1;rounded=0;entryX=0;entryY=0.5;entryDx=0;entryDy=0;exitX=1;exitY=0.5;exitDx=0;exitDy=0;" parent="1" source="v1RIOKHqUVee-AEiR5x7-248" target="v1RIOKHqUVee-AEiR5x7-108" edge="1">
          <mxGeometry width="50" height="50" relative="1" as="geometry">
            <mxPoint x="37.5" y="964" as="sourcePoint" />
            <mxPoint x="377.5" y="874" as="targetPoint" />
          </mxGeometry>
        </mxCell>
        <mxCell id="v1RIOKHqUVee-AEiR5x7-111" value="" style="endArrow=classic;html=1;rounded=0;entryX=0;entryY=0.5;entryDx=0;entryDy=0;exitX=1;exitY=0.5;exitDx=0;exitDy=0;" parent="1" source="v1RIOKHqUVee-AEiR5x7-108" target="v1RIOKHqUVee-AEiR5x7-109" edge="1">
          <mxGeometry width="50" height="50" relative="1" as="geometry">
            <mxPoint x="47.5" y="974" as="sourcePoint" />
            <mxPoint x="107.5" y="949" as="targetPoint" />
          </mxGeometry>
        </mxCell>
        <mxCell id="v1RIOKHqUVee-AEiR5x7-112" value="" style="endArrow=classic;html=1;rounded=0;entryX=0;entryY=0.5;entryDx=0;entryDy=0;exitX=1;exitY=0.5;exitDx=0;exitDy=0;" parent="1" source="v1RIOKHqUVee-AEiR5x7-109" edge="1">
          <mxGeometry width="50" height="50" relative="1" as="geometry">
            <mxPoint x="57.5" y="984" as="sourcePoint" />
            <mxPoint x="322.5" y="939" as="targetPoint" />
          </mxGeometry>
        </mxCell>
        <mxCell id="v1RIOKHqUVee-AEiR5x7-113" value="&lt;b&gt;t&lt;/b&gt;" style="text;html=1;align=center;verticalAlign=middle;resizable=0;points=[];autosize=1;strokeColor=none;fillColor=none;" parent="1" vertex="1">
          <mxGeometry x="157.5" y="912" width="30" height="30" as="geometry" />
        </mxCell>
        <mxCell id="v1RIOKHqUVee-AEiR5x7-114" value="&lt;b&gt;h&lt;/b&gt;" style="text;html=1;align=center;verticalAlign=middle;resizable=0;points=[];autosize=1;strokeColor=none;fillColor=none;" parent="1" vertex="1">
          <mxGeometry x="267.5" y="912" width="30" height="30" as="geometry" />
        </mxCell>
        <mxCell id="v1RIOKHqUVee-AEiR5x7-115" value="52" style="ellipse;whiteSpace=wrap;html=1;aspect=fixed;strokeWidth=1;" parent="1" vertex="1">
          <mxGeometry x="320" y="1002" width="50" height="50" as="geometry" />
        </mxCell>
        <mxCell id="v1RIOKHqUVee-AEiR5x7-116" value="64" style="ellipse;whiteSpace=wrap;html=1;aspect=fixed;strokeWidth=1;" parent="1" vertex="1">
          <mxGeometry x="430" y="1002" width="50" height="50" as="geometry" />
        </mxCell>
        <mxCell id="v1RIOKHqUVee-AEiR5x7-118" value="" style="endArrow=classic;html=1;rounded=0;entryX=0;entryY=0.5;entryDx=0;entryDy=0;exitX=1;exitY=0.5;exitDx=0;exitDy=0;" parent="1" source="v1RIOKHqUVee-AEiR5x7-115" target="v1RIOKHqUVee-AEiR5x7-116" edge="1">
          <mxGeometry width="50" height="50" relative="1" as="geometry">
            <mxPoint x="270" y="1062" as="sourcePoint" />
            <mxPoint x="330" y="1037" as="targetPoint" />
          </mxGeometry>
        </mxCell>
        <mxCell id="v1RIOKHqUVee-AEiR5x7-120" value="&lt;b&gt;s&lt;/b&gt;" style="text;html=1;align=center;verticalAlign=middle;resizable=0;points=[];autosize=1;strokeColor=none;fillColor=none;" parent="1" vertex="1">
          <mxGeometry x="380" y="1000" width="30" height="30" as="geometry" />
        </mxCell>
        <mxCell id="v1RIOKHqUVee-AEiR5x7-121" value="&lt;b&gt;e&lt;/b&gt;" style="text;html=1;align=center;verticalAlign=middle;resizable=0;points=[];autosize=1;strokeColor=none;fillColor=none;" parent="1" vertex="1">
          <mxGeometry x="500" y="1002" width="30" height="30" as="geometry" />
        </mxCell>
        <mxCell id="v1RIOKHqUVee-AEiR5x7-123" value="5" style="ellipse;whiteSpace=wrap;html=1;aspect=fixed;strokeWidth=1;" parent="1" vertex="1">
          <mxGeometry x="97.5" y="1004" width="50" height="50" as="geometry" />
        </mxCell>
        <mxCell id="v1RIOKHqUVee-AEiR5x7-124" value="29" style="ellipse;whiteSpace=wrap;html=1;aspect=fixed;strokeWidth=1;" parent="1" vertex="1">
          <mxGeometry x="207.5" y="1004" width="50" height="50" as="geometry" />
        </mxCell>
        <mxCell id="v1RIOKHqUVee-AEiR5x7-125" value="" style="endArrow=classic;html=1;rounded=0;entryX=0;entryY=0.5;entryDx=0;entryDy=0;" parent="1" source="v1RIOKHqUVee-AEiR5x7-248" target="v1RIOKHqUVee-AEiR5x7-123" edge="1">
          <mxGeometry width="50" height="50" relative="1" as="geometry">
            <mxPoint x="37.5" y="1054" as="sourcePoint" />
            <mxPoint x="377.5" y="964" as="targetPoint" />
          </mxGeometry>
        </mxCell>
        <mxCell id="v1RIOKHqUVee-AEiR5x7-126" value="" style="endArrow=classic;html=1;rounded=0;entryX=0;entryY=0.5;entryDx=0;entryDy=0;exitX=1;exitY=0.5;exitDx=0;exitDy=0;" parent="1" source="v1RIOKHqUVee-AEiR5x7-123" target="v1RIOKHqUVee-AEiR5x7-124" edge="1">
          <mxGeometry width="50" height="50" relative="1" as="geometry">
            <mxPoint x="47.5" y="1064" as="sourcePoint" />
            <mxPoint x="107.5" y="1039" as="targetPoint" />
          </mxGeometry>
        </mxCell>
        <mxCell id="v1RIOKHqUVee-AEiR5x7-127" value="" style="endArrow=classic;html=1;rounded=0;entryX=0;entryY=0.5;entryDx=0;entryDy=0;exitX=1;exitY=0.5;exitDx=0;exitDy=0;" parent="1" source="v1RIOKHqUVee-AEiR5x7-124" edge="1">
          <mxGeometry width="50" height="50" relative="1" as="geometry">
            <mxPoint x="57.5" y="1074" as="sourcePoint" />
            <mxPoint x="322.5" y="1029" as="targetPoint" />
          </mxGeometry>
        </mxCell>
        <mxCell id="v1RIOKHqUVee-AEiR5x7-128" value="&lt;b&gt;e&lt;/b&gt;" style="text;html=1;align=center;verticalAlign=middle;resizable=0;points=[];autosize=1;strokeColor=none;fillColor=none;" parent="1" vertex="1">
          <mxGeometry x="157.5" y="1002" width="30" height="30" as="geometry" />
        </mxCell>
        <mxCell id="v1RIOKHqUVee-AEiR5x7-129" value="&lt;b&gt;l&lt;/b&gt;" style="text;html=1;align=center;verticalAlign=middle;resizable=0;points=[];autosize=1;strokeColor=none;fillColor=none;" parent="1" vertex="1">
          <mxGeometry x="267.5" y="1002" width="30" height="30" as="geometry" />
        </mxCell>
        <mxCell id="v1RIOKHqUVee-AEiR5x7-139" value="30" style="ellipse;whiteSpace=wrap;html=1;aspect=fixed;strokeWidth=1;" parent="1" vertex="1">
          <mxGeometry x="205" y="1092" width="50" height="50" as="geometry" />
        </mxCell>
        <mxCell id="v1RIOKHqUVee-AEiR5x7-140" value="53" style="ellipse;whiteSpace=wrap;html=1;aspect=fixed;strokeWidth=1;" parent="1" vertex="1">
          <mxGeometry x="315" y="1092" width="50" height="50" as="geometry" />
        </mxCell>
        <mxCell id="v1RIOKHqUVee-AEiR5x7-142" value="" style="endArrow=classic;html=1;rounded=0;entryX=0;entryY=0.5;entryDx=0;entryDy=0;exitX=1;exitY=0.5;exitDx=0;exitDy=0;" parent="1" source="v1RIOKHqUVee-AEiR5x7-139" target="v1RIOKHqUVee-AEiR5x7-140" edge="1">
          <mxGeometry width="50" height="50" relative="1" as="geometry">
            <mxPoint x="155" y="1152" as="sourcePoint" />
            <mxPoint x="215" y="1127" as="targetPoint" />
          </mxGeometry>
        </mxCell>
        <mxCell id="v1RIOKHqUVee-AEiR5x7-144" value="&lt;b&gt;n&lt;/b&gt;" style="text;html=1;align=center;verticalAlign=middle;resizable=0;points=[];autosize=1;strokeColor=none;fillColor=none;" parent="1" vertex="1">
          <mxGeometry x="265" y="1090" width="30" height="30" as="geometry" />
        </mxCell>
        <mxCell id="v1RIOKHqUVee-AEiR5x7-145" value="&lt;b&gt;d&lt;/b&gt;" style="text;html=1;align=center;verticalAlign=middle;resizable=0;points=[];autosize=1;strokeColor=none;fillColor=none;" parent="1" vertex="1">
          <mxGeometry x="397" y="1092" width="30" height="30" as="geometry" />
        </mxCell>
        <mxCell id="v1RIOKHqUVee-AEiR5x7-147" value="6" style="ellipse;whiteSpace=wrap;html=1;aspect=fixed;strokeWidth=1;" parent="1" vertex="1">
          <mxGeometry x="92.5" y="1094" width="50" height="50" as="geometry" />
        </mxCell>
        <mxCell id="v1RIOKHqUVee-AEiR5x7-148" value="" style="endArrow=classic;html=1;rounded=0;entryX=0;entryY=0.5;entryDx=0;entryDy=0;" parent="1" source="v1RIOKHqUVee-AEiR5x7-248" target="v1RIOKHqUVee-AEiR5x7-147" edge="1">
          <mxGeometry width="50" height="50" relative="1" as="geometry">
            <mxPoint x="33" y="1140" as="sourcePoint" />
            <mxPoint x="-7.5" y="1129" as="targetPoint" />
          </mxGeometry>
        </mxCell>
        <mxCell id="v1RIOKHqUVee-AEiR5x7-149" value="" style="endArrow=classic;html=1;rounded=0;entryX=0;entryY=0.5;entryDx=0;entryDy=0;exitX=1;exitY=0.5;exitDx=0;exitDy=0;" parent="1" source="v1RIOKHqUVee-AEiR5x7-147" edge="1">
          <mxGeometry width="50" height="50" relative="1" as="geometry">
            <mxPoint x="-57.5" y="1164" as="sourcePoint" />
            <mxPoint x="207.5" y="1119" as="targetPoint" />
          </mxGeometry>
        </mxCell>
        <mxCell id="v1RIOKHqUVee-AEiR5x7-151" value="&lt;b&gt;e&lt;/b&gt;" style="text;html=1;align=center;verticalAlign=middle;resizable=0;points=[];autosize=1;strokeColor=none;fillColor=none;" parent="1" vertex="1">
          <mxGeometry x="152.5" y="1092" width="30" height="30" as="geometry" />
        </mxCell>
        <mxCell id="v1RIOKHqUVee-AEiR5x7-152" value="74" style="ellipse;whiteSpace=wrap;html=1;aspect=fixed;strokeWidth=1;" parent="1" vertex="1">
          <mxGeometry x="539.5" y="1182" width="50" height="50" as="geometry" />
        </mxCell>
        <mxCell id="v1RIOKHqUVee-AEiR5x7-153" value="79" style="ellipse;whiteSpace=wrap;html=1;aspect=fixed;strokeWidth=1;" parent="1" vertex="1">
          <mxGeometry x="649.5" y="1182" width="50" height="50" as="geometry" />
        </mxCell>
        <mxCell id="v1RIOKHqUVee-AEiR5x7-155" value="" style="endArrow=classic;html=1;rounded=0;entryX=0;entryY=0.5;entryDx=0;entryDy=0;exitX=1;exitY=0.5;exitDx=0;exitDy=0;" parent="1" source="v1RIOKHqUVee-AEiR5x7-152" target="v1RIOKHqUVee-AEiR5x7-153" edge="1">
          <mxGeometry width="50" height="50" relative="1" as="geometry">
            <mxPoint x="489.5" y="1242" as="sourcePoint" />
            <mxPoint x="549.5" y="1217" as="targetPoint" />
          </mxGeometry>
        </mxCell>
        <mxCell id="v1RIOKHqUVee-AEiR5x7-157" value="&lt;b&gt;a&lt;/b&gt;" style="text;html=1;align=center;verticalAlign=middle;resizable=0;points=[];autosize=1;strokeColor=none;fillColor=none;" parent="1" vertex="1">
          <mxGeometry x="599.5" y="1180" width="30" height="30" as="geometry" />
        </mxCell>
        <mxCell id="v1RIOKHqUVee-AEiR5x7-158" value="&lt;b&gt;t&lt;/b&gt;" style="text;html=1;align=center;verticalAlign=middle;resizable=0;points=[];autosize=1;strokeColor=none;fillColor=none;" parent="1" vertex="1">
          <mxGeometry x="720" y="1180" width="30" height="30" as="geometry" />
        </mxCell>
        <mxCell id="v1RIOKHqUVee-AEiR5x7-160" value="54" style="ellipse;whiteSpace=wrap;html=1;aspect=fixed;strokeWidth=1;" parent="1" vertex="1">
          <mxGeometry x="317" y="1184" width="50" height="50" as="geometry" />
        </mxCell>
        <mxCell id="v1RIOKHqUVee-AEiR5x7-161" value="66" style="ellipse;whiteSpace=wrap;html=1;aspect=fixed;strokeWidth=1;" parent="1" vertex="1">
          <mxGeometry x="427" y="1184" width="50" height="50" as="geometry" />
        </mxCell>
        <mxCell id="v1RIOKHqUVee-AEiR5x7-163" value="" style="endArrow=classic;html=1;rounded=0;entryX=0;entryY=0.5;entryDx=0;entryDy=0;exitX=1;exitY=0.5;exitDx=0;exitDy=0;" parent="1" source="v1RIOKHqUVee-AEiR5x7-160" target="v1RIOKHqUVee-AEiR5x7-161" edge="1">
          <mxGeometry width="50" height="50" relative="1" as="geometry">
            <mxPoint x="267" y="1244" as="sourcePoint" />
            <mxPoint x="327" y="1219" as="targetPoint" />
          </mxGeometry>
        </mxCell>
        <mxCell id="v1RIOKHqUVee-AEiR5x7-164" value="" style="endArrow=classic;html=1;rounded=0;entryX=0;entryY=0.5;entryDx=0;entryDy=0;exitX=1;exitY=0.5;exitDx=0;exitDy=0;" parent="1" source="v1RIOKHqUVee-AEiR5x7-161" edge="1">
          <mxGeometry width="50" height="50" relative="1" as="geometry">
            <mxPoint x="277" y="1254" as="sourcePoint" />
            <mxPoint x="542" y="1209" as="targetPoint" />
          </mxGeometry>
        </mxCell>
        <mxCell id="v1RIOKHqUVee-AEiR5x7-165" value="&lt;b&gt;p&lt;/b&gt;" style="text;html=1;align=center;verticalAlign=middle;resizable=0;points=[];autosize=1;strokeColor=none;fillColor=none;" parent="1" vertex="1">
          <mxGeometry x="377" y="1182" width="30" height="30" as="geometry" />
        </mxCell>
        <mxCell id="v1RIOKHqUVee-AEiR5x7-166" value="&lt;b&gt;e&lt;/b&gt;" style="text;html=1;align=center;verticalAlign=middle;resizable=0;points=[];autosize=1;strokeColor=none;fillColor=none;" parent="1" vertex="1">
          <mxGeometry x="487" y="1182" width="30" height="30" as="geometry" />
        </mxCell>
        <mxCell id="v1RIOKHqUVee-AEiR5x7-167" value="31" style="ellipse;whiteSpace=wrap;html=1;aspect=fixed;strokeWidth=1;" parent="1" vertex="1">
          <mxGeometry x="208" y="1184" width="50" height="50" as="geometry" />
        </mxCell>
        <mxCell id="v1RIOKHqUVee-AEiR5x7-168" value="" style="endArrow=classic;html=1;rounded=0;exitX=1;exitY=0.5;exitDx=0;exitDy=0;" parent="1" source="v1RIOKHqUVee-AEiR5x7-167" edge="1">
          <mxGeometry width="50" height="50" relative="1" as="geometry">
            <mxPoint x="158" y="1244" as="sourcePoint" />
            <mxPoint x="318" y="1210" as="targetPoint" />
          </mxGeometry>
        </mxCell>
        <mxCell id="v1RIOKHqUVee-AEiR5x7-169" value="&lt;b&gt;e&lt;/b&gt;" style="text;html=1;align=center;verticalAlign=middle;resizable=0;points=[];autosize=1;strokeColor=none;fillColor=none;" parent="1" vertex="1">
          <mxGeometry x="268" y="1182" width="30" height="30" as="geometry" />
        </mxCell>
        <mxCell id="v1RIOKHqUVee-AEiR5x7-170" value="7" style="ellipse;whiteSpace=wrap;html=1;aspect=fixed;strokeWidth=1;" parent="1" vertex="1">
          <mxGeometry x="95.5" y="1186" width="50" height="50" as="geometry" />
        </mxCell>
        <mxCell id="v1RIOKHqUVee-AEiR5x7-171" value="" style="endArrow=classic;html=1;rounded=0;entryX=0;entryY=0.5;entryDx=0;entryDy=0;" parent="1" source="v1RIOKHqUVee-AEiR5x7-248" target="v1RIOKHqUVee-AEiR5x7-170" edge="1">
          <mxGeometry width="50" height="50" relative="1" as="geometry">
            <mxPoint x="36" y="1232" as="sourcePoint" />
            <mxPoint x="-4.5" y="1221" as="targetPoint" />
          </mxGeometry>
        </mxCell>
        <mxCell id="v1RIOKHqUVee-AEiR5x7-172" value="" style="endArrow=classic;html=1;rounded=0;entryX=0;entryY=0.5;entryDx=0;entryDy=0;exitX=1;exitY=0.5;exitDx=0;exitDy=0;" parent="1" source="v1RIOKHqUVee-AEiR5x7-170" edge="1">
          <mxGeometry width="50" height="50" relative="1" as="geometry">
            <mxPoint x="-54.5" y="1256" as="sourcePoint" />
            <mxPoint x="210.5" y="1211" as="targetPoint" />
          </mxGeometry>
        </mxCell>
        <mxCell id="v1RIOKHqUVee-AEiR5x7-173" value="&lt;b&gt;r&lt;/b&gt;" style="text;html=1;align=center;verticalAlign=middle;resizable=0;points=[];autosize=1;strokeColor=none;fillColor=none;" parent="1" vertex="1">
          <mxGeometry x="155.5" y="1184" width="30" height="30" as="geometry" />
        </mxCell>
        <mxCell id="v1RIOKHqUVee-AEiR5x7-174" value="" style="ellipse;whiteSpace=wrap;html=1;aspect=fixed;strokeWidth=1;" parent="1" vertex="1">
          <mxGeometry x="429.5" y="1276" width="50" height="50" as="geometry" />
        </mxCell>
        <mxCell id="v1RIOKHqUVee-AEiR5x7-175" value="" style="ellipse;whiteSpace=wrap;html=1;aspect=fixed;strokeWidth=1;" parent="1" vertex="1">
          <mxGeometry x="539.5" y="1276" width="50" height="50" as="geometry" />
        </mxCell>
        <mxCell id="v1RIOKHqUVee-AEiR5x7-177" value="" style="endArrow=classic;html=1;rounded=0;entryX=0;entryY=0.5;entryDx=0;entryDy=0;exitX=1;exitY=0.5;exitDx=0;exitDy=0;" parent="1" source="v1RIOKHqUVee-AEiR5x7-174" target="v1RIOKHqUVee-AEiR5x7-175" edge="1">
          <mxGeometry width="50" height="50" relative="1" as="geometry">
            <mxPoint x="379.5" y="1336" as="sourcePoint" />
            <mxPoint x="439.5" y="1311" as="targetPoint" />
          </mxGeometry>
        </mxCell>
        <mxCell id="v1RIOKHqUVee-AEiR5x7-179" value="&lt;b&gt;i&lt;/b&gt;" style="text;html=1;align=center;verticalAlign=middle;resizable=0;points=[];autosize=1;strokeColor=none;fillColor=none;" parent="1" vertex="1">
          <mxGeometry x="489.5" y="1274" width="30" height="30" as="geometry" />
        </mxCell>
        <mxCell id="v1RIOKHqUVee-AEiR5x7-180" value="&lt;b&gt;l&lt;/b&gt;" style="text;html=1;align=center;verticalAlign=middle;resizable=0;points=[];autosize=1;strokeColor=none;fillColor=none;" parent="1" vertex="1">
          <mxGeometry x="609.5" y="1276" width="30" height="30" as="geometry" />
        </mxCell>
        <mxCell id="v1RIOKHqUVee-AEiR5x7-183" value="" style="ellipse;whiteSpace=wrap;html=1;aspect=fixed;strokeWidth=1;" parent="1" vertex="1">
          <mxGeometry x="317" y="1278" width="50" height="50" as="geometry" />
        </mxCell>
        <mxCell id="v1RIOKHqUVee-AEiR5x7-185" value="" style="endArrow=classic;html=1;rounded=0;entryX=0;entryY=0.5;entryDx=0;entryDy=0;exitX=1;exitY=0.5;exitDx=0;exitDy=0;" parent="1" source="v1RIOKHqUVee-AEiR5x7-183" edge="1">
          <mxGeometry width="50" height="50" relative="1" as="geometry">
            <mxPoint x="167" y="1348" as="sourcePoint" />
            <mxPoint x="432" y="1303" as="targetPoint" />
          </mxGeometry>
        </mxCell>
        <mxCell id="v1RIOKHqUVee-AEiR5x7-187" value="&lt;b&gt;t&lt;/b&gt;" style="text;html=1;align=center;verticalAlign=middle;resizable=0;points=[];autosize=1;strokeColor=none;fillColor=none;" parent="1" vertex="1">
          <mxGeometry x="377" y="1276" width="30" height="30" as="geometry" />
        </mxCell>
        <mxCell id="v1RIOKHqUVee-AEiR5x7-188" value="" style="ellipse;whiteSpace=wrap;html=1;aspect=fixed;strokeWidth=1;" parent="1" vertex="1">
          <mxGeometry x="208" y="1274" width="50" height="50" as="geometry" />
        </mxCell>
        <mxCell id="v1RIOKHqUVee-AEiR5x7-189" value="" style="endArrow=classic;html=1;rounded=0;exitX=1;exitY=0.5;exitDx=0;exitDy=0;entryX=0;entryY=0.5;entryDx=0;entryDy=0;" parent="1" source="v1RIOKHqUVee-AEiR5x7-188" target="v1RIOKHqUVee-AEiR5x7-183" edge="1">
          <mxGeometry width="50" height="50" relative="1" as="geometry">
            <mxPoint x="158" y="1334" as="sourcePoint" />
            <mxPoint x="318" y="1300" as="targetPoint" />
          </mxGeometry>
        </mxCell>
        <mxCell id="v1RIOKHqUVee-AEiR5x7-190" value="&lt;b&gt;n&lt;/b&gt;" style="text;html=1;align=center;verticalAlign=middle;resizable=0;points=[];autosize=1;strokeColor=none;fillColor=none;" parent="1" vertex="1">
          <mxGeometry x="268" y="1272" width="30" height="30" as="geometry" />
        </mxCell>
        <mxCell id="v1RIOKHqUVee-AEiR5x7-191" value="" style="ellipse;whiteSpace=wrap;html=1;aspect=fixed;strokeWidth=1;" parent="1" vertex="1">
          <mxGeometry x="95.5" y="1276" width="50" height="50" as="geometry" />
        </mxCell>
        <mxCell id="v1RIOKHqUVee-AEiR5x7-193" value="" style="endArrow=classic;html=1;rounded=0;entryX=0;entryY=0.5;entryDx=0;entryDy=0;exitX=1;exitY=0.5;exitDx=0;exitDy=0;" parent="1" source="v1RIOKHqUVee-AEiR5x7-191" edge="1">
          <mxGeometry width="50" height="50" relative="1" as="geometry">
            <mxPoint x="-54.5" y="1346" as="sourcePoint" />
            <mxPoint x="210.5" y="1301" as="targetPoint" />
          </mxGeometry>
        </mxCell>
        <mxCell id="v1RIOKHqUVee-AEiR5x7-194" value="&lt;b&gt;u&lt;/b&gt;" style="text;html=1;align=center;verticalAlign=middle;resizable=0;points=[];autosize=1;strokeColor=none;fillColor=none;" parent="1" vertex="1">
          <mxGeometry x="155.5" y="1274" width="30" height="30" as="geometry" />
        </mxCell>
        <mxCell id="v1RIOKHqUVee-AEiR5x7-197" value="56" style="ellipse;whiteSpace=wrap;html=1;aspect=fixed;strokeWidth=1;" parent="1" vertex="1">
          <mxGeometry x="324.5" y="1372" width="50" height="50" as="geometry" />
        </mxCell>
        <mxCell id="v1RIOKHqUVee-AEiR5x7-198" value="68" style="ellipse;whiteSpace=wrap;html=1;aspect=fixed;strokeWidth=1;" parent="1" vertex="1">
          <mxGeometry x="434.5" y="1372" width="50" height="50" as="geometry" />
        </mxCell>
        <mxCell id="v1RIOKHqUVee-AEiR5x7-200" value="" style="endArrow=classic;html=1;rounded=0;entryX=0;entryY=0.5;entryDx=0;entryDy=0;exitX=1;exitY=0.5;exitDx=0;exitDy=0;" parent="1" source="v1RIOKHqUVee-AEiR5x7-197" target="v1RIOKHqUVee-AEiR5x7-198" edge="1">
          <mxGeometry width="50" height="50" relative="1" as="geometry">
            <mxPoint x="274.5" y="1432" as="sourcePoint" />
            <mxPoint x="334.5" y="1407" as="targetPoint" />
          </mxGeometry>
        </mxCell>
        <mxCell id="v1RIOKHqUVee-AEiR5x7-202" value="&lt;b&gt;a&lt;/b&gt;" style="text;html=1;align=center;verticalAlign=middle;resizable=0;points=[];autosize=1;strokeColor=none;fillColor=none;" parent="1" vertex="1">
          <mxGeometry x="384.5" y="1370" width="30" height="30" as="geometry" />
        </mxCell>
        <mxCell id="v1RIOKHqUVee-AEiR5x7-203" value="&lt;b&gt;d&lt;/b&gt;" style="text;html=1;align=center;verticalAlign=middle;resizable=0;points=[];autosize=1;strokeColor=none;fillColor=none;" parent="1" vertex="1">
          <mxGeometry x="505" y="1370" width="30" height="30" as="geometry" />
        </mxCell>
        <mxCell id="v1RIOKHqUVee-AEiR5x7-205" value="9" style="ellipse;whiteSpace=wrap;html=1;aspect=fixed;strokeWidth=1;" parent="1" vertex="1">
          <mxGeometry x="102" y="1374" width="50" height="50" as="geometry" />
        </mxCell>
        <mxCell id="v1RIOKHqUVee-AEiR5x7-206" value="33" style="ellipse;whiteSpace=wrap;html=1;aspect=fixed;strokeWidth=1;" parent="1" vertex="1">
          <mxGeometry x="212" y="1374" width="50" height="50" as="geometry" />
        </mxCell>
        <mxCell id="v1RIOKHqUVee-AEiR5x7-207" value="" style="endArrow=classic;html=1;rounded=0;entryX=0;entryY=0.5;entryDx=0;entryDy=0;" parent="1" source="v1RIOKHqUVee-AEiR5x7-248" target="v1RIOKHqUVee-AEiR5x7-205" edge="1">
          <mxGeometry width="50" height="50" relative="1" as="geometry">
            <mxPoint x="42" y="1424" as="sourcePoint" />
            <mxPoint x="382" y="1334" as="targetPoint" />
          </mxGeometry>
        </mxCell>
        <mxCell id="v1RIOKHqUVee-AEiR5x7-208" value="" style="endArrow=classic;html=1;rounded=0;entryX=0;entryY=0.5;entryDx=0;entryDy=0;exitX=1;exitY=0.5;exitDx=0;exitDy=0;" parent="1" source="v1RIOKHqUVee-AEiR5x7-205" target="v1RIOKHqUVee-AEiR5x7-206" edge="1">
          <mxGeometry width="50" height="50" relative="1" as="geometry">
            <mxPoint x="52" y="1434" as="sourcePoint" />
            <mxPoint x="112" y="1409" as="targetPoint" />
          </mxGeometry>
        </mxCell>
        <mxCell id="v1RIOKHqUVee-AEiR5x7-209" value="" style="endArrow=classic;html=1;rounded=0;entryX=0;entryY=0.5;entryDx=0;entryDy=0;exitX=1;exitY=0.5;exitDx=0;exitDy=0;" parent="1" source="v1RIOKHqUVee-AEiR5x7-206" edge="1">
          <mxGeometry width="50" height="50" relative="1" as="geometry">
            <mxPoint x="62" y="1444" as="sourcePoint" />
            <mxPoint x="327" y="1399" as="targetPoint" />
          </mxGeometry>
        </mxCell>
        <mxCell id="v1RIOKHqUVee-AEiR5x7-210" value="&lt;b&gt;r&lt;/b&gt;" style="text;html=1;align=center;verticalAlign=middle;resizable=0;points=[];autosize=1;strokeColor=none;fillColor=none;" parent="1" vertex="1">
          <mxGeometry x="162" y="1372" width="30" height="30" as="geometry" />
        </mxCell>
        <mxCell id="v1RIOKHqUVee-AEiR5x7-211" value="&lt;b&gt;e&lt;/b&gt;" style="text;html=1;align=center;verticalAlign=middle;resizable=0;points=[];autosize=1;strokeColor=none;fillColor=none;" parent="1" vertex="1">
          <mxGeometry x="272" y="1372" width="30" height="30" as="geometry" />
        </mxCell>
        <mxCell id="v1RIOKHqUVee-AEiR5x7-212" value="67" style="ellipse;whiteSpace=wrap;html=1;aspect=fixed;strokeWidth=1;" parent="1" vertex="1">
          <mxGeometry x="429.5" y="1276" width="50" height="50" as="geometry" />
        </mxCell>
        <mxCell id="v1RIOKHqUVee-AEiR5x7-213" value="75" style="ellipse;whiteSpace=wrap;html=1;aspect=fixed;strokeWidth=1;" parent="1" vertex="1">
          <mxGeometry x="539.5" y="1276" width="50" height="50" as="geometry" />
        </mxCell>
        <mxCell id="v1RIOKHqUVee-AEiR5x7-215" value="" style="endArrow=classic;html=1;rounded=0;entryX=0;entryY=0.5;entryDx=0;entryDy=0;exitX=1;exitY=0.5;exitDx=0;exitDy=0;" parent="1" source="v1RIOKHqUVee-AEiR5x7-212" target="v1RIOKHqUVee-AEiR5x7-213" edge="1">
          <mxGeometry width="50" height="50" relative="1" as="geometry">
            <mxPoint x="379.5" y="1336" as="sourcePoint" />
            <mxPoint x="439.5" y="1311" as="targetPoint" />
          </mxGeometry>
        </mxCell>
        <mxCell id="v1RIOKHqUVee-AEiR5x7-217" value="&lt;b&gt;i&lt;/b&gt;" style="text;html=1;align=center;verticalAlign=middle;resizable=0;points=[];autosize=1;strokeColor=none;fillColor=none;" parent="1" vertex="1">
          <mxGeometry x="489.5" y="1274" width="30" height="30" as="geometry" />
        </mxCell>
        <mxCell id="v1RIOKHqUVee-AEiR5x7-220" value="55" style="ellipse;whiteSpace=wrap;html=1;aspect=fixed;strokeWidth=1;" parent="1" vertex="1">
          <mxGeometry x="317" y="1278" width="50" height="50" as="geometry" />
        </mxCell>
        <mxCell id="v1RIOKHqUVee-AEiR5x7-221" value="" style="endArrow=classic;html=1;rounded=0;entryX=0;entryY=0.5;entryDx=0;entryDy=0;exitX=1;exitY=0.5;exitDx=0;exitDy=0;" parent="1" source="v1RIOKHqUVee-AEiR5x7-220" edge="1">
          <mxGeometry width="50" height="50" relative="1" as="geometry">
            <mxPoint x="167" y="1348" as="sourcePoint" />
            <mxPoint x="432" y="1303" as="targetPoint" />
          </mxGeometry>
        </mxCell>
        <mxCell id="v1RIOKHqUVee-AEiR5x7-222" value="&lt;b&gt;t&lt;/b&gt;" style="text;html=1;align=center;verticalAlign=middle;resizable=0;points=[];autosize=1;strokeColor=none;fillColor=none;" parent="1" vertex="1">
          <mxGeometry x="377" y="1276" width="30" height="30" as="geometry" />
        </mxCell>
        <mxCell id="v1RIOKHqUVee-AEiR5x7-223" value="32" style="ellipse;whiteSpace=wrap;html=1;aspect=fixed;strokeWidth=1;" parent="1" vertex="1">
          <mxGeometry x="208" y="1274" width="50" height="50" as="geometry" />
        </mxCell>
        <mxCell id="v1RIOKHqUVee-AEiR5x7-224" value="" style="endArrow=classic;html=1;rounded=0;exitX=1;exitY=0.5;exitDx=0;exitDy=0;entryX=0;entryY=0.5;entryDx=0;entryDy=0;" parent="1" source="v1RIOKHqUVee-AEiR5x7-223" target="v1RIOKHqUVee-AEiR5x7-220" edge="1">
          <mxGeometry width="50" height="50" relative="1" as="geometry">
            <mxPoint x="158" y="1334" as="sourcePoint" />
            <mxPoint x="318" y="1300" as="targetPoint" />
          </mxGeometry>
        </mxCell>
        <mxCell id="v1RIOKHqUVee-AEiR5x7-225" value="&lt;b&gt;n&lt;/b&gt;" style="text;html=1;align=center;verticalAlign=middle;resizable=0;points=[];autosize=1;strokeColor=none;fillColor=none;" parent="1" vertex="1">
          <mxGeometry x="268" y="1272" width="30" height="30" as="geometry" />
        </mxCell>
        <mxCell id="v1RIOKHqUVee-AEiR5x7-226" value="8" style="ellipse;whiteSpace=wrap;html=1;aspect=fixed;strokeWidth=1;" parent="1" vertex="1">
          <mxGeometry x="95.5" y="1276" width="50" height="50" as="geometry" />
        </mxCell>
        <mxCell id="v1RIOKHqUVee-AEiR5x7-227" value="" style="endArrow=classic;html=1;rounded=0;entryX=0;entryY=0.5;entryDx=0;entryDy=0;" parent="1" source="v1RIOKHqUVee-AEiR5x7-248" target="v1RIOKHqUVee-AEiR5x7-226" edge="1">
          <mxGeometry width="50" height="50" relative="1" as="geometry">
            <mxPoint x="36" y="1322" as="sourcePoint" />
            <mxPoint x="-4.5" y="1311" as="targetPoint" />
          </mxGeometry>
        </mxCell>
        <mxCell id="v1RIOKHqUVee-AEiR5x7-228" value="" style="endArrow=classic;html=1;rounded=0;entryX=0;entryY=0.5;entryDx=0;entryDy=0;exitX=1;exitY=0.5;exitDx=0;exitDy=0;" parent="1" source="v1RIOKHqUVee-AEiR5x7-226" edge="1">
          <mxGeometry width="50" height="50" relative="1" as="geometry">
            <mxPoint x="-54.5" y="1346" as="sourcePoint" />
            <mxPoint x="210.5" y="1301" as="targetPoint" />
          </mxGeometry>
        </mxCell>
        <mxCell id="v1RIOKHqUVee-AEiR5x7-229" value="&lt;b&gt;u&lt;/b&gt;" style="text;html=1;align=center;verticalAlign=middle;resizable=0;points=[];autosize=1;strokeColor=none;fillColor=none;" parent="1" vertex="1">
          <mxGeometry x="155.5" y="1274" width="30" height="30" as="geometry" />
        </mxCell>
        <mxCell id="v1RIOKHqUVee-AEiR5x7-230" value="69" style="ellipse;whiteSpace=wrap;html=1;aspect=fixed;strokeWidth=1;" parent="1" vertex="1">
          <mxGeometry x="429.5" y="1464" width="50" height="50" as="geometry" />
        </mxCell>
        <mxCell id="v1RIOKHqUVee-AEiR5x7-231" value="77" style="ellipse;whiteSpace=wrap;html=1;aspect=fixed;strokeWidth=1;" parent="1" vertex="1">
          <mxGeometry x="539.5" y="1464" width="50" height="50" as="geometry" />
        </mxCell>
        <mxCell id="v1RIOKHqUVee-AEiR5x7-233" value="" style="endArrow=classic;html=1;rounded=0;entryX=0;entryY=0.5;entryDx=0;entryDy=0;exitX=1;exitY=0.5;exitDx=0;exitDy=0;" parent="1" source="v1RIOKHqUVee-AEiR5x7-230" target="v1RIOKHqUVee-AEiR5x7-231" edge="1">
          <mxGeometry width="50" height="50" relative="1" as="geometry">
            <mxPoint x="379.5" y="1524" as="sourcePoint" />
            <mxPoint x="439.5" y="1499" as="targetPoint" />
          </mxGeometry>
        </mxCell>
        <mxCell id="v1RIOKHqUVee-AEiR5x7-235" value="&lt;b&gt;t&lt;/b&gt;" style="text;html=1;align=center;verticalAlign=middle;resizable=0;points=[];autosize=1;strokeColor=none;fillColor=none;" parent="1" vertex="1">
          <mxGeometry x="489.5" y="1462" width="30" height="30" as="geometry" />
        </mxCell>
        <mxCell id="v1RIOKHqUVee-AEiR5x7-238" value="57" style="ellipse;whiteSpace=wrap;html=1;aspect=fixed;strokeWidth=1;" parent="1" vertex="1">
          <mxGeometry x="317" y="1466" width="50" height="50" as="geometry" />
        </mxCell>
        <mxCell id="v1RIOKHqUVee-AEiR5x7-239" value="" style="endArrow=classic;html=1;rounded=0;entryX=0;entryY=0.5;entryDx=0;entryDy=0;exitX=1;exitY=0.5;exitDx=0;exitDy=0;" parent="1" source="v1RIOKHqUVee-AEiR5x7-238" edge="1">
          <mxGeometry width="50" height="50" relative="1" as="geometry">
            <mxPoint x="167" y="1536" as="sourcePoint" />
            <mxPoint x="432" y="1491" as="targetPoint" />
          </mxGeometry>
        </mxCell>
        <mxCell id="v1RIOKHqUVee-AEiR5x7-240" value="&lt;b&gt;i&lt;/b&gt;" style="text;html=1;align=center;verticalAlign=middle;resizable=0;points=[];autosize=1;strokeColor=none;fillColor=none;" parent="1" vertex="1">
          <mxGeometry x="377" y="1464" width="30" height="30" as="geometry" />
        </mxCell>
        <mxCell id="v1RIOKHqUVee-AEiR5x7-241" value="34" style="ellipse;whiteSpace=wrap;html=1;aspect=fixed;strokeWidth=1;" parent="1" vertex="1">
          <mxGeometry x="208" y="1462" width="50" height="50" as="geometry" />
        </mxCell>
        <mxCell id="v1RIOKHqUVee-AEiR5x7-242" value="" style="endArrow=classic;html=1;rounded=0;exitX=1;exitY=0.5;exitDx=0;exitDy=0;entryX=0;entryY=0.5;entryDx=0;entryDy=0;" parent="1" source="v1RIOKHqUVee-AEiR5x7-241" target="v1RIOKHqUVee-AEiR5x7-238" edge="1">
          <mxGeometry width="50" height="50" relative="1" as="geometry">
            <mxPoint x="158" y="1522" as="sourcePoint" />
            <mxPoint x="318" y="1488" as="targetPoint" />
          </mxGeometry>
        </mxCell>
        <mxCell id="v1RIOKHqUVee-AEiR5x7-243" value="&lt;b&gt;r&lt;/b&gt;" style="text;html=1;align=center;verticalAlign=middle;resizable=0;points=[];autosize=1;strokeColor=none;fillColor=none;" parent="1" vertex="1">
          <mxGeometry x="268" y="1460" width="30" height="30" as="geometry" />
        </mxCell>
        <mxCell id="v1RIOKHqUVee-AEiR5x7-244" value="10" style="ellipse;whiteSpace=wrap;html=1;aspect=fixed;strokeWidth=1;" parent="1" vertex="1">
          <mxGeometry x="95.5" y="1464" width="50" height="50" as="geometry" />
        </mxCell>
        <mxCell id="v1RIOKHqUVee-AEiR5x7-245" value="" style="endArrow=classic;html=1;rounded=0;entryX=0;entryY=0.5;entryDx=0;entryDy=0;" parent="1" source="v1RIOKHqUVee-AEiR5x7-248" target="v1RIOKHqUVee-AEiR5x7-244" edge="1">
          <mxGeometry width="50" height="50" relative="1" as="geometry">
            <mxPoint x="36" y="1510" as="sourcePoint" />
            <mxPoint x="-4.5" y="1499" as="targetPoint" />
          </mxGeometry>
        </mxCell>
        <mxCell id="v1RIOKHqUVee-AEiR5x7-246" value="" style="endArrow=classic;html=1;rounded=0;entryX=0;entryY=0.5;entryDx=0;entryDy=0;exitX=1;exitY=0.5;exitDx=0;exitDy=0;" parent="1" source="v1RIOKHqUVee-AEiR5x7-244" edge="1">
          <mxGeometry width="50" height="50" relative="1" as="geometry">
            <mxPoint x="-54.5" y="1534" as="sourcePoint" />
            <mxPoint x="210.5" y="1489" as="targetPoint" />
          </mxGeometry>
        </mxCell>
        <mxCell id="v1RIOKHqUVee-AEiR5x7-247" value="&lt;b&gt;w&lt;/b&gt;" style="text;html=1;align=center;verticalAlign=middle;resizable=0;points=[];autosize=1;strokeColor=none;fillColor=none;" parent="1" vertex="1">
          <mxGeometry x="155.5" y="1462" width="30" height="30" as="geometry" />
        </mxCell>
        <mxCell id="v1RIOKHqUVee-AEiR5x7-248" value="0" style="ellipse;whiteSpace=wrap;html=1;aspect=fixed;strokeWidth=1;" parent="1" vertex="1">
          <mxGeometry x="-340" y="930" width="50" height="50" as="geometry" />
        </mxCell>
        <mxCell id="v1RIOKHqUVee-AEiR5x7-250" value="" style="ellipse;whiteSpace=wrap;html=1;aspect=fixed;strokeWidth=1;" parent="1" vertex="1">
          <mxGeometry x="579.5" y="552" width="50" height="50" as="geometry" />
        </mxCell>
        <mxCell id="v1RIOKHqUVee-AEiR5x7-251" value="82" style="ellipse;whiteSpace=wrap;html=1;aspect=fixed;strokeWidth=1;" parent="1" vertex="1">
          <mxGeometry x="584.5" y="557" width="40" height="40" as="geometry" />
        </mxCell>
        <mxCell id="v1RIOKHqUVee-AEiR5x7-253" value="11" style="ellipse;whiteSpace=wrap;html=1;aspect=fixed;strokeWidth=1;" parent="1" vertex="1">
          <mxGeometry x="100.5" y="1540" width="50" height="50" as="geometry" />
        </mxCell>
        <mxCell id="v1RIOKHqUVee-AEiR5x7-254" value="" style="ellipse;whiteSpace=wrap;html=1;aspect=fixed;strokeWidth=1;" parent="1" vertex="1">
          <mxGeometry x="208" y="1540" width="50" height="50" as="geometry" />
        </mxCell>
        <mxCell id="v1RIOKHqUVee-AEiR5x7-256" value="" style="endArrow=classic;html=1;rounded=0;entryX=0;entryY=0.5;entryDx=0;entryDy=0;exitX=1;exitY=0.5;exitDx=0;exitDy=0;" parent="1" source="v1RIOKHqUVee-AEiR5x7-253" target="v1RIOKHqUVee-AEiR5x7-254" edge="1">
          <mxGeometry width="50" height="50" relative="1" as="geometry">
            <mxPoint x="159" y="1489" as="sourcePoint" />
            <mxPoint x="223.5" y="1489" as="targetPoint" />
          </mxGeometry>
        </mxCell>
        <mxCell id="v1RIOKHqUVee-AEiR5x7-257" value="12" style="ellipse;whiteSpace=wrap;html=1;aspect=fixed;strokeWidth=1;" parent="1" vertex="1">
          <mxGeometry x="98.25" y="1610" width="50" height="50" as="geometry" />
        </mxCell>
        <mxCell id="v1RIOKHqUVee-AEiR5x7-258" value="" style="ellipse;whiteSpace=wrap;html=1;aspect=fixed;strokeWidth=1;" parent="1" vertex="1">
          <mxGeometry x="205.75" y="1610" width="50" height="50" as="geometry" />
        </mxCell>
        <mxCell id="v1RIOKHqUVee-AEiR5x7-259" value="" style="endArrow=classic;html=1;rounded=0;entryX=0;entryY=0.5;entryDx=0;entryDy=0;exitX=1;exitY=0.5;exitDx=0;exitDy=0;" parent="1" source="v1RIOKHqUVee-AEiR5x7-257" target="v1RIOKHqUVee-AEiR5x7-258" edge="1">
          <mxGeometry width="50" height="50" relative="1" as="geometry">
            <mxPoint x="156.75" y="1559" as="sourcePoint" />
            <mxPoint x="221.25" y="1559" as="targetPoint" />
          </mxGeometry>
        </mxCell>
        <mxCell id="v1RIOKHqUVee-AEiR5x7-260" value="13" style="ellipse;whiteSpace=wrap;html=1;aspect=fixed;strokeWidth=1;" parent="1" vertex="1">
          <mxGeometry x="97.5" y="1680" width="50" height="50" as="geometry" />
        </mxCell>
        <mxCell id="v1RIOKHqUVee-AEiR5x7-261" value="" style="ellipse;whiteSpace=wrap;html=1;aspect=fixed;strokeWidth=1;" parent="1" vertex="1">
          <mxGeometry x="205" y="1680" width="50" height="50" as="geometry" />
        </mxCell>
        <mxCell id="v1RIOKHqUVee-AEiR5x7-262" value="" style="endArrow=classic;html=1;rounded=0;entryX=0;entryY=0.5;entryDx=0;entryDy=0;exitX=1;exitY=0.5;exitDx=0;exitDy=0;" parent="1" source="v1RIOKHqUVee-AEiR5x7-260" target="v1RIOKHqUVee-AEiR5x7-261" edge="1">
          <mxGeometry width="50" height="50" relative="1" as="geometry">
            <mxPoint x="156" y="1629" as="sourcePoint" />
            <mxPoint x="220.5" y="1629" as="targetPoint" />
          </mxGeometry>
        </mxCell>
        <mxCell id="v1RIOKHqUVee-AEiR5x7-263" value="14" style="ellipse;whiteSpace=wrap;html=1;aspect=fixed;strokeWidth=1;" parent="1" vertex="1">
          <mxGeometry x="98.25" y="1740" width="50" height="50" as="geometry" />
        </mxCell>
        <mxCell id="v1RIOKHqUVee-AEiR5x7-264" value="" style="ellipse;whiteSpace=wrap;html=1;aspect=fixed;strokeWidth=1;" parent="1" vertex="1">
          <mxGeometry x="205.75" y="1740" width="50" height="50" as="geometry" />
        </mxCell>
        <mxCell id="v1RIOKHqUVee-AEiR5x7-265" value="" style="endArrow=classic;html=1;rounded=0;entryX=0;entryY=0.5;entryDx=0;entryDy=0;exitX=1;exitY=0.5;exitDx=0;exitDy=0;" parent="1" source="v1RIOKHqUVee-AEiR5x7-263" target="v1RIOKHqUVee-AEiR5x7-264" edge="1">
          <mxGeometry width="50" height="50" relative="1" as="geometry">
            <mxPoint x="156.75" y="1689" as="sourcePoint" />
            <mxPoint x="221.25" y="1689" as="targetPoint" />
          </mxGeometry>
        </mxCell>
        <mxCell id="v1RIOKHqUVee-AEiR5x7-266" value="15" style="ellipse;whiteSpace=wrap;html=1;aspect=fixed;strokeWidth=1;" parent="1" vertex="1">
          <mxGeometry x="95.5" y="1810" width="50" height="50" as="geometry" />
        </mxCell>
        <mxCell id="v1RIOKHqUVee-AEiR5x7-267" value="39" style="ellipse;whiteSpace=wrap;html=1;aspect=fixed;strokeWidth=1;" parent="1" vertex="1">
          <mxGeometry x="203" y="1810" width="50" height="50" as="geometry" />
        </mxCell>
        <mxCell id="v1RIOKHqUVee-AEiR5x7-268" value="" style="endArrow=classic;html=1;rounded=0;entryX=0;entryY=0.5;entryDx=0;entryDy=0;exitX=1;exitY=0.5;exitDx=0;exitDy=0;" parent="1" source="v1RIOKHqUVee-AEiR5x7-266" target="v1RIOKHqUVee-AEiR5x7-267" edge="1">
          <mxGeometry width="50" height="50" relative="1" as="geometry">
            <mxPoint x="154" y="1759" as="sourcePoint" />
            <mxPoint x="218.5" y="1759" as="targetPoint" />
          </mxGeometry>
        </mxCell>
        <mxCell id="v1RIOKHqUVee-AEiR5x7-269" value="" style="ellipse;whiteSpace=wrap;html=1;aspect=fixed;strokeWidth=1;" parent="1" vertex="1">
          <mxGeometry x="310" y="1810" width="50" height="50" as="geometry" />
        </mxCell>
        <mxCell id="v1RIOKHqUVee-AEiR5x7-270" value="" style="endArrow=classic;html=1;rounded=0;entryX=0;entryY=0.5;entryDx=0;entryDy=0;exitX=1;exitY=0.5;exitDx=0;exitDy=0;" parent="1" source="v1RIOKHqUVee-AEiR5x7-267" target="v1RIOKHqUVee-AEiR5x7-269" edge="1">
          <mxGeometry width="50" height="50" relative="1" as="geometry">
            <mxPoint x="156" y="1845" as="sourcePoint" />
            <mxPoint x="213" y="1845" as="targetPoint" />
          </mxGeometry>
        </mxCell>
        <mxCell id="v1RIOKHqUVee-AEiR5x7-271" value="&lt;b&gt;+&lt;/b&gt;" style="text;html=1;align=center;verticalAlign=middle;resizable=0;points=[];autosize=1;strokeColor=none;fillColor=none;" parent="1" vertex="1">
          <mxGeometry x="165" y="1538" width="30" height="30" as="geometry" />
        </mxCell>
        <mxCell id="v1RIOKHqUVee-AEiR5x7-272" value="&lt;b&gt;-&lt;/b&gt;" style="text;html=1;align=center;verticalAlign=middle;resizable=0;points=[];autosize=1;strokeColor=none;fillColor=none;" parent="1" vertex="1">
          <mxGeometry x="165" y="1608" width="30" height="30" as="geometry" />
        </mxCell>
        <mxCell id="v1RIOKHqUVee-AEiR5x7-273" value="&lt;b&gt;*&lt;/b&gt;" style="text;html=1;align=center;verticalAlign=middle;resizable=0;points=[];autosize=1;strokeColor=none;fillColor=none;" parent="1" vertex="1">
          <mxGeometry x="162" y="1680" width="30" height="30" as="geometry" />
        </mxCell>
        <mxCell id="v1RIOKHqUVee-AEiR5x7-274" value="&lt;b&gt;/&lt;/b&gt;" style="text;html=1;align=center;verticalAlign=middle;resizable=0;points=[];autosize=1;strokeColor=none;fillColor=none;" parent="1" vertex="1">
          <mxGeometry x="165" y="1738" width="30" height="30" as="geometry" />
        </mxCell>
        <mxCell id="v1RIOKHqUVee-AEiR5x7-275" value="&lt;font style=&quot;font-size: 16px;&quot;&gt;&lt;b&gt;:&lt;/b&gt;&lt;/font&gt;" style="text;html=1;align=center;verticalAlign=middle;resizable=0;points=[];autosize=1;strokeColor=none;fillColor=none;" parent="1" vertex="1">
          <mxGeometry x="155" y="1808" width="30" height="30" as="geometry" />
        </mxCell>
        <mxCell id="v1RIOKHqUVee-AEiR5x7-276" value="&lt;font style=&quot;font-size: 16px;&quot;&gt;&lt;b&gt;=&lt;/b&gt;&lt;/font&gt;" style="text;html=1;align=center;verticalAlign=middle;resizable=0;points=[];autosize=1;strokeColor=none;fillColor=none;" parent="1" vertex="1">
          <mxGeometry x="265" y="1808" width="30" height="30" as="geometry" />
        </mxCell>
        <mxCell id="v1RIOKHqUVee-AEiR5x7-277" value="16" style="ellipse;whiteSpace=wrap;html=1;aspect=fixed;strokeWidth=1;" parent="1" vertex="1">
          <mxGeometry x="98.25" y="1882" width="50" height="50" as="geometry" />
        </mxCell>
        <mxCell id="v1RIOKHqUVee-AEiR5x7-278" value="" style="ellipse;whiteSpace=wrap;html=1;aspect=fixed;strokeWidth=1;" parent="1" vertex="1">
          <mxGeometry x="205.75" y="1882" width="50" height="50" as="geometry" />
        </mxCell>
        <mxCell id="v1RIOKHqUVee-AEiR5x7-279" value="" style="endArrow=classic;html=1;rounded=0;entryX=0;entryY=0.5;entryDx=0;entryDy=0;exitX=1;exitY=0.5;exitDx=0;exitDy=0;" parent="1" source="v1RIOKHqUVee-AEiR5x7-277" target="v1RIOKHqUVee-AEiR5x7-278" edge="1">
          <mxGeometry width="50" height="50" relative="1" as="geometry">
            <mxPoint x="156.75" y="1831" as="sourcePoint" />
            <mxPoint x="221.25" y="1831" as="targetPoint" />
          </mxGeometry>
        </mxCell>
        <mxCell id="v1RIOKHqUVee-AEiR5x7-280" value="&lt;b&gt;&amp;lt;&lt;/b&gt;" style="text;html=1;align=center;verticalAlign=middle;resizable=0;points=[];autosize=1;strokeColor=none;fillColor=none;" parent="1" vertex="1">
          <mxGeometry x="165" y="1880" width="30" height="30" as="geometry" />
        </mxCell>
        <mxCell id="v1RIOKHqUVee-AEiR5x7-281" value="17" style="ellipse;whiteSpace=wrap;html=1;aspect=fixed;strokeWidth=1;" parent="1" vertex="1">
          <mxGeometry x="98.25" y="1952" width="50" height="50" as="geometry" />
        </mxCell>
        <mxCell id="v1RIOKHqUVee-AEiR5x7-282" value="" style="ellipse;whiteSpace=wrap;html=1;aspect=fixed;strokeWidth=1;" parent="1" vertex="1">
          <mxGeometry x="205.75" y="1952" width="50" height="50" as="geometry" />
        </mxCell>
        <mxCell id="v1RIOKHqUVee-AEiR5x7-283" value="" style="endArrow=classic;html=1;rounded=0;entryX=0;entryY=0.5;entryDx=0;entryDy=0;exitX=1;exitY=0.5;exitDx=0;exitDy=0;" parent="1" source="v1RIOKHqUVee-AEiR5x7-281" target="v1RIOKHqUVee-AEiR5x7-282" edge="1">
          <mxGeometry width="50" height="50" relative="1" as="geometry">
            <mxPoint x="156.75" y="1901" as="sourcePoint" />
            <mxPoint x="221.25" y="1901" as="targetPoint" />
          </mxGeometry>
        </mxCell>
        <mxCell id="v1RIOKHqUVee-AEiR5x7-284" value="&lt;b&gt;&amp;gt;&lt;/b&gt;" style="text;html=1;align=center;verticalAlign=middle;resizable=0;points=[];autosize=1;strokeColor=none;fillColor=none;" parent="1" vertex="1">
          <mxGeometry x="165" y="1950" width="30" height="30" as="geometry" />
        </mxCell>
        <mxCell id="v1RIOKHqUVee-AEiR5x7-285" value="18" style="ellipse;whiteSpace=wrap;html=1;aspect=fixed;strokeWidth=1;" parent="1" vertex="1">
          <mxGeometry x="95.5" y="2022" width="50" height="50" as="geometry" />
        </mxCell>
        <mxCell id="v1RIOKHqUVee-AEiR5x7-286" value="" style="ellipse;whiteSpace=wrap;html=1;aspect=fixed;strokeWidth=1;" parent="1" vertex="1">
          <mxGeometry x="203" y="2022" width="50" height="50" as="geometry" />
        </mxCell>
        <mxCell id="v1RIOKHqUVee-AEiR5x7-287" value="" style="endArrow=classic;html=1;rounded=0;entryX=0;entryY=0.5;entryDx=0;entryDy=0;exitX=1;exitY=0.5;exitDx=0;exitDy=0;" parent="1" source="v1RIOKHqUVee-AEiR5x7-285" target="v1RIOKHqUVee-AEiR5x7-286" edge="1">
          <mxGeometry width="50" height="50" relative="1" as="geometry">
            <mxPoint x="154" y="1971" as="sourcePoint" />
            <mxPoint x="218.5" y="1971" as="targetPoint" />
          </mxGeometry>
        </mxCell>
        <mxCell id="v1RIOKHqUVee-AEiR5x7-288" value="&lt;b&gt;)&lt;/b&gt;" style="text;html=1;align=center;verticalAlign=middle;resizable=0;points=[];autosize=1;strokeColor=none;fillColor=none;" parent="1" vertex="1">
          <mxGeometry x="162.25" y="2020" width="30" height="30" as="geometry" />
        </mxCell>
        <mxCell id="v1RIOKHqUVee-AEiR5x7-289" value="19" style="ellipse;whiteSpace=wrap;html=1;aspect=fixed;strokeWidth=1;" parent="1" vertex="1">
          <mxGeometry x="93.75" y="2092" width="50" height="50" as="geometry" />
        </mxCell>
        <mxCell id="v1RIOKHqUVee-AEiR5x7-290" value="" style="ellipse;whiteSpace=wrap;html=1;aspect=fixed;strokeWidth=1;" parent="1" vertex="1">
          <mxGeometry x="201.25" y="2092" width="50" height="50" as="geometry" />
        </mxCell>
        <mxCell id="v1RIOKHqUVee-AEiR5x7-291" value="" style="endArrow=classic;html=1;rounded=0;entryX=0;entryY=0.5;entryDx=0;entryDy=0;exitX=1;exitY=0.5;exitDx=0;exitDy=0;" parent="1" source="v1RIOKHqUVee-AEiR5x7-289" target="v1RIOKHqUVee-AEiR5x7-290" edge="1">
          <mxGeometry width="50" height="50" relative="1" as="geometry">
            <mxPoint x="152.25" y="2041" as="sourcePoint" />
            <mxPoint x="216.75" y="2041" as="targetPoint" />
          </mxGeometry>
        </mxCell>
        <mxCell id="v1RIOKHqUVee-AEiR5x7-292" value="&lt;b&gt;(&lt;/b&gt;" style="text;html=1;align=center;verticalAlign=middle;resizable=0;points=[];autosize=1;strokeColor=none;fillColor=none;" parent="1" vertex="1">
          <mxGeometry x="160.5" y="2090" width="30" height="30" as="geometry" />
        </mxCell>
        <mxCell id="v1RIOKHqUVee-AEiR5x7-293" value="20" style="ellipse;whiteSpace=wrap;html=1;aspect=fixed;strokeWidth=1;" parent="1" vertex="1">
          <mxGeometry x="93.75" y="2162" width="50" height="50" as="geometry" />
        </mxCell>
        <mxCell id="v1RIOKHqUVee-AEiR5x7-294" value="" style="ellipse;whiteSpace=wrap;html=1;aspect=fixed;strokeWidth=1;" parent="1" vertex="1">
          <mxGeometry x="201.25" y="2162" width="50" height="50" as="geometry" />
        </mxCell>
        <mxCell id="v1RIOKHqUVee-AEiR5x7-296" value="&lt;b&gt;&lt;font style=&quot;font-size: 15px;&quot;&gt;;&lt;/font&gt;&lt;/b&gt;" style="text;html=1;align=center;verticalAlign=middle;resizable=0;points=[];autosize=1;strokeColor=none;fillColor=none;" parent="1" vertex="1">
          <mxGeometry x="160.5" y="2160" width="30" height="30" as="geometry" />
        </mxCell>
        <mxCell id="v1RIOKHqUVee-AEiR5x7-297" value="" style="endArrow=classic;html=1;rounded=0;entryX=0;entryY=0.5;entryDx=0;entryDy=0;exitX=1;exitY=0.5;exitDx=0;exitDy=0;" parent="1" edge="1">
          <mxGeometry width="50" height="50" relative="1" as="geometry">
            <mxPoint x="145.13" y="2190" as="sourcePoint" />
            <mxPoint x="203.13" y="2190" as="targetPoint" />
          </mxGeometry>
        </mxCell>
        <mxCell id="v1RIOKHqUVee-AEiR5x7-298" value="21" style="ellipse;whiteSpace=wrap;html=1;aspect=fixed;strokeWidth=1;" parent="1" vertex="1">
          <mxGeometry x="92.63" y="2235" width="50" height="50" as="geometry" />
        </mxCell>
        <mxCell id="v1RIOKHqUVee-AEiR5x7-299" value="" style="ellipse;whiteSpace=wrap;html=1;aspect=fixed;strokeWidth=1;" parent="1" vertex="1">
          <mxGeometry x="200.13" y="2235" width="50" height="50" as="geometry" />
        </mxCell>
        <mxCell id="v1RIOKHqUVee-AEiR5x7-300" value="" style="endArrow=classic;html=1;rounded=0;entryX=0;entryY=0.5;entryDx=0;entryDy=0;exitX=1;exitY=0.5;exitDx=0;exitDy=0;" parent="1" source="v1RIOKHqUVee-AEiR5x7-298" target="v1RIOKHqUVee-AEiR5x7-299" edge="1">
          <mxGeometry width="50" height="50" relative="1" as="geometry">
            <mxPoint x="151.13" y="2184" as="sourcePoint" />
            <mxPoint x="215.63" y="2184" as="targetPoint" />
          </mxGeometry>
        </mxCell>
        <mxCell id="v1RIOKHqUVee-AEiR5x7-301" value="&lt;b&gt;{&lt;/b&gt;" style="text;html=1;align=center;verticalAlign=middle;resizable=0;points=[];autosize=1;strokeColor=none;fillColor=none;" parent="1" vertex="1">
          <mxGeometry x="159.38" y="2233" width="30" height="30" as="geometry" />
        </mxCell>
        <mxCell id="v1RIOKHqUVee-AEiR5x7-302" value="22" style="ellipse;whiteSpace=wrap;html=1;aspect=fixed;strokeWidth=1;" parent="1" vertex="1">
          <mxGeometry x="90.88" y="2305" width="50" height="50" as="geometry" />
        </mxCell>
        <mxCell id="v1RIOKHqUVee-AEiR5x7-303" value="" style="ellipse;whiteSpace=wrap;html=1;aspect=fixed;strokeWidth=1;" parent="1" vertex="1">
          <mxGeometry x="198.38" y="2305" width="50" height="50" as="geometry" />
        </mxCell>
        <mxCell id="v1RIOKHqUVee-AEiR5x7-304" value="" style="endArrow=classic;html=1;rounded=0;entryX=0;entryY=0.5;entryDx=0;entryDy=0;exitX=1;exitY=0.5;exitDx=0;exitDy=0;" parent="1" source="v1RIOKHqUVee-AEiR5x7-302" target="v1RIOKHqUVee-AEiR5x7-303" edge="1">
          <mxGeometry width="50" height="50" relative="1" as="geometry">
            <mxPoint x="149.38" y="2254" as="sourcePoint" />
            <mxPoint x="213.88" y="2254" as="targetPoint" />
          </mxGeometry>
        </mxCell>
        <mxCell id="v1RIOKHqUVee-AEiR5x7-305" value="&lt;b&gt;}&lt;/b&gt;" style="text;html=1;align=center;verticalAlign=middle;resizable=0;points=[];autosize=1;strokeColor=none;fillColor=none;" parent="1" vertex="1">
          <mxGeometry x="157.63" y="2303" width="30" height="30" as="geometry" />
        </mxCell>
        <mxCell id="v1RIOKHqUVee-AEiR5x7-306" value="23" style="ellipse;whiteSpace=wrap;html=1;aspect=fixed;strokeWidth=1;" parent="1" vertex="1">
          <mxGeometry x="90.88" y="2375" width="50" height="50" as="geometry" />
        </mxCell>
        <mxCell id="v1RIOKHqUVee-AEiR5x7-307" value="" style="ellipse;whiteSpace=wrap;html=1;aspect=fixed;strokeWidth=1;" parent="1" vertex="1">
          <mxGeometry x="198.38" y="2375" width="50" height="50" as="geometry" />
        </mxCell>
        <mxCell id="v1RIOKHqUVee-AEiR5x7-308" value="" style="endArrow=classic;html=1;rounded=0;entryX=0;entryY=0.5;entryDx=0;entryDy=0;exitX=1;exitY=0.5;exitDx=0;exitDy=0;" parent="1" source="v1RIOKHqUVee-AEiR5x7-306" target="v1RIOKHqUVee-AEiR5x7-307" edge="1">
          <mxGeometry width="50" height="50" relative="1" as="geometry">
            <mxPoint x="149.38" y="2324" as="sourcePoint" />
            <mxPoint x="213.88" y="2324" as="targetPoint" />
          </mxGeometry>
        </mxCell>
        <mxCell id="v1RIOKHqUVee-AEiR5x7-309" value="&lt;b&gt;&lt;font style=&quot;font-size: 15px;&quot;&gt;:&lt;/font&gt;&lt;/b&gt;" style="text;html=1;align=center;verticalAlign=middle;resizable=0;points=[];autosize=1;strokeColor=none;fillColor=none;" parent="1" vertex="1">
          <mxGeometry x="157.63" y="2373" width="30" height="30" as="geometry" />
        </mxCell>
        <mxCell id="v1RIOKHqUVee-AEiR5x7-310" value="" style="endArrow=classic;html=1;rounded=0;" parent="1" source="v1RIOKHqUVee-AEiR5x7-248" target="v1RIOKHqUVee-AEiR5x7-253" edge="1">
          <mxGeometry width="50" height="50" relative="1" as="geometry">
            <mxPoint x="-360" y="1020" as="sourcePoint" />
            <mxPoint x="36" y="1534" as="targetPoint" />
          </mxGeometry>
        </mxCell>
        <mxCell id="v1RIOKHqUVee-AEiR5x7-311" value="" style="endArrow=classic;html=1;rounded=0;entryX=0;entryY=0.5;entryDx=0;entryDy=0;" parent="1" source="v1RIOKHqUVee-AEiR5x7-248" target="v1RIOKHqUVee-AEiR5x7-257" edge="1">
          <mxGeometry width="50" height="50" relative="1" as="geometry">
            <mxPoint x="-346" y="1024" as="sourcePoint" />
            <mxPoint x="50" y="1538" as="targetPoint" />
          </mxGeometry>
        </mxCell>
        <mxCell id="v1RIOKHqUVee-AEiR5x7-312" value="" style="endArrow=classic;html=1;rounded=0;" parent="1" source="v1RIOKHqUVee-AEiR5x7-248" target="v1RIOKHqUVee-AEiR5x7-260" edge="1">
          <mxGeometry width="50" height="50" relative="1" as="geometry">
            <mxPoint x="-330" y="1020" as="sourcePoint" />
            <mxPoint x="70" y="1679" as="targetPoint" />
          </mxGeometry>
        </mxCell>
        <mxCell id="v1RIOKHqUVee-AEiR5x7-313" value="" style="endArrow=classic;html=1;rounded=0;" parent="1" source="v1RIOKHqUVee-AEiR5x7-248" target="v1RIOKHqUVee-AEiR5x7-263" edge="1">
          <mxGeometry width="50" height="50" relative="1" as="geometry">
            <mxPoint x="-350" y="1021" as="sourcePoint" />
            <mxPoint x="50" y="1680" as="targetPoint" />
          </mxGeometry>
        </mxCell>
        <mxCell id="v1RIOKHqUVee-AEiR5x7-314" value="" style="endArrow=classic;html=1;rounded=0;entryX=0;entryY=0;entryDx=0;entryDy=0;" parent="1" source="v1RIOKHqUVee-AEiR5x7-248" target="v1RIOKHqUVee-AEiR5x7-266" edge="1">
          <mxGeometry width="50" height="50" relative="1" as="geometry">
            <mxPoint x="-360" y="1057.5" as="sourcePoint" />
            <mxPoint x="40" y="1716.5" as="targetPoint" />
          </mxGeometry>
        </mxCell>
        <mxCell id="v1RIOKHqUVee-AEiR5x7-315" value="" style="endArrow=classic;html=1;rounded=0;" parent="1" source="v1RIOKHqUVee-AEiR5x7-248" target="v1RIOKHqUVee-AEiR5x7-277" edge="1">
          <mxGeometry width="50" height="50" relative="1" as="geometry">
            <mxPoint x="-350" y="1057.5" as="sourcePoint" />
            <mxPoint x="50" y="1716.5" as="targetPoint" />
          </mxGeometry>
        </mxCell>
        <mxCell id="v1RIOKHqUVee-AEiR5x7-316" value="" style="endArrow=classic;html=1;rounded=0;" parent="1" source="v1RIOKHqUVee-AEiR5x7-248" target="v1RIOKHqUVee-AEiR5x7-281" edge="1">
          <mxGeometry width="50" height="50" relative="1" as="geometry">
            <mxPoint x="-350" y="1120" as="sourcePoint" />
            <mxPoint x="50" y="1779" as="targetPoint" />
          </mxGeometry>
        </mxCell>
        <mxCell id="v1RIOKHqUVee-AEiR5x7-317" value="" style="endArrow=classic;html=1;rounded=0;" parent="1" source="v1RIOKHqUVee-AEiR5x7-248" target="v1RIOKHqUVee-AEiR5x7-285" edge="1">
          <mxGeometry width="50" height="50" relative="1" as="geometry">
            <mxPoint x="-358" y="999" as="sourcePoint" />
            <mxPoint x="60" y="1975" as="targetPoint" />
          </mxGeometry>
        </mxCell>
        <mxCell id="v1RIOKHqUVee-AEiR5x7-318" value="" style="endArrow=classic;html=1;rounded=0;" parent="1" source="v1RIOKHqUVee-AEiR5x7-248" target="v1RIOKHqUVee-AEiR5x7-289" edge="1">
          <mxGeometry width="50" height="50" relative="1" as="geometry">
            <mxPoint x="-358" y="1094" as="sourcePoint" />
            <mxPoint x="60" y="2070" as="targetPoint" />
          </mxGeometry>
        </mxCell>
        <mxCell id="v1RIOKHqUVee-AEiR5x7-319" value="" style="endArrow=classic;html=1;rounded=0;" parent="1" source="v1RIOKHqUVee-AEiR5x7-248" target="v1RIOKHqUVee-AEiR5x7-293" edge="1">
          <mxGeometry width="50" height="50" relative="1" as="geometry">
            <mxPoint x="-358" y="1080" as="sourcePoint" />
            <mxPoint x="60" y="2056" as="targetPoint" />
          </mxGeometry>
        </mxCell>
        <mxCell id="v1RIOKHqUVee-AEiR5x7-320" value="" style="endArrow=classic;html=1;rounded=0;" parent="1" source="v1RIOKHqUVee-AEiR5x7-248" target="v1RIOKHqUVee-AEiR5x7-298" edge="1">
          <mxGeometry width="50" height="50" relative="1" as="geometry">
            <mxPoint x="-390" y="1190" as="sourcePoint" />
            <mxPoint x="28" y="2166" as="targetPoint" />
          </mxGeometry>
        </mxCell>
        <mxCell id="v1RIOKHqUVee-AEiR5x7-321" value="" style="endArrow=classic;html=1;rounded=0;" parent="1" source="v1RIOKHqUVee-AEiR5x7-248" target="v1RIOKHqUVee-AEiR5x7-302" edge="1">
          <mxGeometry width="50" height="50" relative="1" as="geometry">
            <mxPoint x="-350" y="1122" as="sourcePoint" />
            <mxPoint x="68" y="2098" as="targetPoint" />
          </mxGeometry>
        </mxCell>
        <mxCell id="v1RIOKHqUVee-AEiR5x7-322" value="" style="endArrow=classic;html=1;rounded=0;" parent="1" source="v1RIOKHqUVee-AEiR5x7-248" target="v1RIOKHqUVee-AEiR5x7-306" edge="1">
          <mxGeometry width="50" height="50" relative="1" as="geometry">
            <mxPoint x="-368" y="1190" as="sourcePoint" />
            <mxPoint x="50" y="2166" as="targetPoint" />
          </mxGeometry>
        </mxCell>
        <mxCell id="v1RIOKHqUVee-AEiR5x7-337" value="&lt;b&gt;λ for all&lt;/b&gt;" style="text;html=1;align=center;verticalAlign=middle;resizable=0;points=[];autosize=1;strokeColor=none;fillColor=none;strokeWidth=1;" parent="1" vertex="1">
          <mxGeometry x="-390" y="1004" width="70" height="30" as="geometry" />
        </mxCell>
        <mxCell id="v1RIOKHqUVee-AEiR5x7-341" value="" style="ellipse;whiteSpace=wrap;html=1;aspect=fixed;strokeWidth=1;" parent="1" vertex="1">
          <mxGeometry x="500" y="292" width="50" height="50" as="geometry" />
        </mxCell>
        <mxCell id="v1RIOKHqUVee-AEiR5x7-342" value="59" style="ellipse;whiteSpace=wrap;html=1;aspect=fixed;strokeWidth=1;" parent="1" vertex="1">
          <mxGeometry x="505" y="297" width="40" height="40" as="geometry" />
        </mxCell>
        <mxCell id="v1RIOKHqUVee-AEiR5x7-345" value="" style="endArrow=classic;html=1;rounded=0;entryX=0;entryY=0.5;entryDx=0;entryDy=0;exitX=1;exitY=0.5;exitDx=0;exitDy=0;strokeWidth=1;" parent="1" source="v1RIOKHqUVee-AEiR5x7-4" target="v1RIOKHqUVee-AEiR5x7-341" edge="1">
          <mxGeometry width="50" height="50" relative="1" as="geometry">
            <mxPoint x="192" y="327" as="sourcePoint" />
            <mxPoint x="252" y="327" as="targetPoint" />
          </mxGeometry>
        </mxCell>
        <mxCell id="v1RIOKHqUVee-AEiR5x7-346" value="" style="endArrow=classic;html=1;rounded=0;entryX=0;entryY=0.5;entryDx=0;entryDy=0;exitX=1;exitY=0.5;exitDx=0;exitDy=0;strokeWidth=1;" parent="1" edge="1">
          <mxGeometry width="50" height="50" relative="1" as="geometry">
            <mxPoint x="480" y="582" as="sourcePoint" />
            <mxPoint x="578" y="582" as="targetPoint" />
          </mxGeometry>
        </mxCell>
        <mxCell id="v1RIOKHqUVee-AEiR5x7-348" value="" style="ellipse;whiteSpace=wrap;html=1;aspect=fixed;strokeWidth=1;" parent="1" vertex="1">
          <mxGeometry x="334.5" y="820" width="50" height="50" as="geometry" />
        </mxCell>
        <mxCell id="v1RIOKHqUVee-AEiR5x7-349" value="50" style="ellipse;whiteSpace=wrap;html=1;aspect=fixed;strokeWidth=1;" parent="1" vertex="1">
          <mxGeometry x="339.5" y="825" width="40" height="40" as="geometry" />
        </mxCell>
        <mxCell id="v1RIOKHqUVee-AEiR5x7-350" value="" style="endArrow=classic;html=1;rounded=0;entryX=0;entryY=0.5;entryDx=0;entryDy=0;strokeWidth=1;" parent="1" source="v1RIOKHqUVee-AEiR5x7-76" target="v1RIOKHqUVee-AEiR5x7-348" edge="1">
          <mxGeometry width="50" height="50" relative="1" as="geometry">
            <mxPoint x="255.75" y="845" as="sourcePoint" />
            <mxPoint x="105.75" y="855" as="targetPoint" />
          </mxGeometry>
        </mxCell>
        <mxCell id="v1RIOKHqUVee-AEiR5x7-353" value="" style="ellipse;whiteSpace=wrap;html=1;aspect=fixed;strokeWidth=1;" parent="1" vertex="1">
          <mxGeometry x="556.5" y="916" width="50" height="50" as="geometry" />
        </mxCell>
        <mxCell id="v1RIOKHqUVee-AEiR5x7-354" value="72" style="ellipse;whiteSpace=wrap;html=1;aspect=fixed;strokeWidth=1;" parent="1" vertex="1">
          <mxGeometry x="561.5" y="921" width="40" height="40" as="geometry" />
        </mxCell>
        <mxCell id="v1RIOKHqUVee-AEiR5x7-355" value="" style="endArrow=classic;html=1;rounded=0;entryX=0;entryY=0.5;entryDx=0;entryDy=0;strokeWidth=1;" parent="1" target="v1RIOKHqUVee-AEiR5x7-353" edge="1">
          <mxGeometry width="50" height="50" relative="1" as="geometry">
            <mxPoint x="477" y="941" as="sourcePoint" />
            <mxPoint x="327.75" y="951" as="targetPoint" />
          </mxGeometry>
        </mxCell>
        <mxCell id="v1RIOKHqUVee-AEiR5x7-357" value="" style="ellipse;whiteSpace=wrap;html=1;aspect=fixed;strokeWidth=1;" parent="1" vertex="1">
          <mxGeometry x="554.5" y="1006" width="50" height="50" as="geometry" />
        </mxCell>
        <mxCell id="v1RIOKHqUVee-AEiR5x7-358" value="73" style="ellipse;whiteSpace=wrap;html=1;aspect=fixed;strokeWidth=1;" parent="1" vertex="1">
          <mxGeometry x="559.5" y="1011" width="40" height="40" as="geometry" />
        </mxCell>
        <mxCell id="v1RIOKHqUVee-AEiR5x7-359" value="" style="endArrow=classic;html=1;rounded=0;entryX=0;entryY=0.5;entryDx=0;entryDy=0;strokeWidth=1;" parent="1" target="v1RIOKHqUVee-AEiR5x7-357" edge="1">
          <mxGeometry width="50" height="50" relative="1" as="geometry">
            <mxPoint x="475" y="1031" as="sourcePoint" />
            <mxPoint x="325.75" y="1041" as="targetPoint" />
          </mxGeometry>
        </mxCell>
        <mxCell id="v1RIOKHqUVee-AEiR5x7-361" value="" style="ellipse;whiteSpace=wrap;html=1;aspect=fixed;strokeWidth=1;" parent="1" vertex="1">
          <mxGeometry x="444.5" y="1092" width="50" height="50" as="geometry" />
        </mxCell>
        <mxCell id="v1RIOKHqUVee-AEiR5x7-362" value="65" style="ellipse;whiteSpace=wrap;html=1;aspect=fixed;strokeWidth=1;" parent="1" vertex="1">
          <mxGeometry x="449.5" y="1097" width="40" height="40" as="geometry" />
        </mxCell>
        <mxCell id="v1RIOKHqUVee-AEiR5x7-363" value="" style="endArrow=classic;html=1;rounded=0;entryX=0;entryY=0.5;entryDx=0;entryDy=0;strokeWidth=1;" parent="1" target="v1RIOKHqUVee-AEiR5x7-361" edge="1">
          <mxGeometry width="50" height="50" relative="1" as="geometry">
            <mxPoint x="365" y="1117" as="sourcePoint" />
            <mxPoint x="215.75" y="1127" as="targetPoint" />
          </mxGeometry>
        </mxCell>
        <mxCell id="v1RIOKHqUVee-AEiR5x7-365" value="" style="ellipse;whiteSpace=wrap;html=1;aspect=fixed;strokeWidth=1;" parent="1" vertex="1">
          <mxGeometry x="779.5" y="1183" width="50" height="50" as="geometry" />
        </mxCell>
        <mxCell id="v1RIOKHqUVee-AEiR5x7-366" value="83" style="ellipse;whiteSpace=wrap;html=1;aspect=fixed;strokeWidth=1;" parent="1" vertex="1">
          <mxGeometry x="784.5" y="1188" width="40" height="40" as="geometry" />
        </mxCell>
        <mxCell id="v1RIOKHqUVee-AEiR5x7-367" value="" style="endArrow=classic;html=1;rounded=0;entryX=0;entryY=0.5;entryDx=0;entryDy=0;strokeWidth=1;" parent="1" target="v1RIOKHqUVee-AEiR5x7-365" edge="1">
          <mxGeometry width="50" height="50" relative="1" as="geometry">
            <mxPoint x="700" y="1208" as="sourcePoint" />
            <mxPoint x="550.75" y="1218" as="targetPoint" />
          </mxGeometry>
        </mxCell>
        <mxCell id="v1RIOKHqUVee-AEiR5x7-374" value="" style="ellipse;whiteSpace=wrap;html=1;aspect=fixed;strokeWidth=1;" parent="1" vertex="1">
          <mxGeometry x="669.5" y="1279" width="50" height="50" as="geometry" />
        </mxCell>
        <mxCell id="v1RIOKHqUVee-AEiR5x7-375" value="80" style="ellipse;whiteSpace=wrap;html=1;aspect=fixed;strokeWidth=1;" parent="1" vertex="1">
          <mxGeometry x="674.5" y="1284" width="40" height="40" as="geometry" />
        </mxCell>
        <mxCell id="v1RIOKHqUVee-AEiR5x7-376" value="" style="endArrow=classic;html=1;rounded=0;entryX=0;entryY=0.5;entryDx=0;entryDy=0;strokeWidth=1;" parent="1" target="v1RIOKHqUVee-AEiR5x7-374" edge="1">
          <mxGeometry width="50" height="50" relative="1" as="geometry">
            <mxPoint x="590" y="1304" as="sourcePoint" />
            <mxPoint x="440.75" y="1314" as="targetPoint" />
          </mxGeometry>
        </mxCell>
        <mxCell id="v1RIOKHqUVee-AEiR5x7-378" value="" style="ellipse;whiteSpace=wrap;html=1;aspect=fixed;strokeWidth=1;" parent="1" vertex="1">
          <mxGeometry x="564" y="1372" width="50" height="50" as="geometry" />
        </mxCell>
        <mxCell id="v1RIOKHqUVee-AEiR5x7-379" value="76" style="ellipse;whiteSpace=wrap;html=1;aspect=fixed;strokeWidth=1;" parent="1" vertex="1">
          <mxGeometry x="569" y="1377" width="40" height="40" as="geometry" />
        </mxCell>
        <mxCell id="v1RIOKHqUVee-AEiR5x7-380" value="" style="endArrow=classic;html=1;rounded=0;entryX=0;entryY=0.5;entryDx=0;entryDy=0;strokeWidth=1;" parent="1" target="v1RIOKHqUVee-AEiR5x7-378" edge="1">
          <mxGeometry width="50" height="50" relative="1" as="geometry">
            <mxPoint x="484.5" y="1397" as="sourcePoint" />
            <mxPoint x="335.25" y="1407" as="targetPoint" />
          </mxGeometry>
        </mxCell>
        <mxCell id="v1RIOKHqUVee-AEiR5x7-381" value="&lt;b&gt;e&lt;/b&gt;" style="text;html=1;align=center;verticalAlign=middle;resizable=0;points=[];autosize=1;strokeColor=none;fillColor=none;" parent="1" vertex="1">
          <mxGeometry x="609.5" y="1462" width="30" height="30" as="geometry" />
        </mxCell>
        <mxCell id="v1RIOKHqUVee-AEiR5x7-382" value="" style="ellipse;whiteSpace=wrap;html=1;aspect=fixed;strokeWidth=1;" parent="1" vertex="1">
          <mxGeometry x="669" y="1465" width="50" height="50" as="geometry" />
        </mxCell>
        <mxCell id="v1RIOKHqUVee-AEiR5x7-383" value="81" style="ellipse;whiteSpace=wrap;html=1;aspect=fixed;strokeWidth=1;" parent="1" vertex="1">
          <mxGeometry x="674" y="1470" width="40" height="40" as="geometry" />
        </mxCell>
        <mxCell id="v1RIOKHqUVee-AEiR5x7-384" value="" style="endArrow=classic;html=1;rounded=0;entryX=0;entryY=0.5;entryDx=0;entryDy=0;strokeWidth=1;" parent="1" target="v1RIOKHqUVee-AEiR5x7-382" edge="1">
          <mxGeometry width="50" height="50" relative="1" as="geometry">
            <mxPoint x="589.5" y="1490" as="sourcePoint" />
            <mxPoint x="440.25" y="1500" as="targetPoint" />
          </mxGeometry>
        </mxCell>
        <mxCell id="v1RIOKHqUVee-AEiR5x7-387" value="36" style="ellipse;whiteSpace=wrap;html=1;aspect=fixed;strokeWidth=1;" parent="1" vertex="1">
          <mxGeometry x="212" y="1615" width="40" height="40" as="geometry" />
        </mxCell>
        <mxCell id="v1RIOKHqUVee-AEiR5x7-389" value="35" style="ellipse;whiteSpace=wrap;html=1;aspect=fixed;strokeWidth=1;" parent="1" vertex="1">
          <mxGeometry x="212" y="1545" width="40" height="40" as="geometry" />
        </mxCell>
        <mxCell id="v1RIOKHqUVee-AEiR5x7-390" value="37" style="ellipse;whiteSpace=wrap;html=1;aspect=fixed;strokeWidth=1;" parent="1" vertex="1">
          <mxGeometry x="208.38" y="1685" width="40" height="40" as="geometry" />
        </mxCell>
        <mxCell id="v1RIOKHqUVee-AEiR5x7-391" value="38" style="ellipse;whiteSpace=wrap;html=1;aspect=fixed;strokeWidth=1;" parent="1" vertex="1">
          <mxGeometry x="212" y="1745" width="40" height="40" as="geometry" />
        </mxCell>
        <mxCell id="v1RIOKHqUVee-AEiR5x7-392" value="58" style="ellipse;whiteSpace=wrap;html=1;aspect=fixed;strokeWidth=1;" parent="1" vertex="1">
          <mxGeometry x="315" y="1815" width="40" height="40" as="geometry" />
        </mxCell>
        <mxCell id="v1RIOKHqUVee-AEiR5x7-393" value="40" style="ellipse;whiteSpace=wrap;html=1;aspect=fixed;strokeWidth=1;" parent="1" vertex="1">
          <mxGeometry x="208.38" y="1887" width="40" height="40" as="geometry" />
        </mxCell>
        <mxCell id="v1RIOKHqUVee-AEiR5x7-394" value="42" style="ellipse;whiteSpace=wrap;html=1;aspect=fixed;strokeWidth=1;" parent="1" vertex="1">
          <mxGeometry x="208.38" y="2027" width="40" height="40" as="geometry" />
        </mxCell>
        <mxCell id="v1RIOKHqUVee-AEiR5x7-395" value="43" style="ellipse;whiteSpace=wrap;html=1;aspect=fixed;strokeWidth=1;" parent="1" vertex="1">
          <mxGeometry x="207.5" y="2097" width="40" height="40" as="geometry" />
        </mxCell>
        <mxCell id="v1RIOKHqUVee-AEiR5x7-396" value="44" style="ellipse;whiteSpace=wrap;html=1;aspect=fixed;strokeWidth=1;" parent="1" vertex="1">
          <mxGeometry x="205" y="2167" width="40" height="40" as="geometry" />
        </mxCell>
        <mxCell id="v1RIOKHqUVee-AEiR5x7-397" value="45" style="ellipse;whiteSpace=wrap;html=1;aspect=fixed;strokeWidth=1;" parent="1" vertex="1">
          <mxGeometry x="206.25" y="2240" width="40" height="40" as="geometry" />
        </mxCell>
        <mxCell id="v1RIOKHqUVee-AEiR5x7-398" value="46" style="ellipse;whiteSpace=wrap;html=1;aspect=fixed;strokeWidth=1;" parent="1" vertex="1">
          <mxGeometry x="205" y="2310" width="40" height="40" as="geometry" />
        </mxCell>
        <mxCell id="v1RIOKHqUVee-AEiR5x7-399" value="47" style="ellipse;whiteSpace=wrap;html=1;aspect=fixed;strokeWidth=1;" parent="1" vertex="1">
          <mxGeometry x="205" y="2380" width="40" height="40" as="geometry" />
        </mxCell>
        <mxCell id="v1RIOKHqUVee-AEiR5x7-401" value="41" style="ellipse;whiteSpace=wrap;html=1;aspect=fixed;strokeWidth=1;" parent="1" vertex="1">
          <mxGeometry x="210" y="1957" width="40" height="40" as="geometry" />
        </mxCell>
      </root>
    </mxGraphModel>
  </diagram>
</mxfile>
